<svg width="800" height="800" viewBox="0 0 800 800" fill="none" xmlns="http://www.w3.org/2000/svg">
<g clip-path="url(#clip0_8_2)">
<g filter="url(#filter0_d_8_2)">
<g clip-path="url(#clip1_8_2)">
<rect x="50" y="203" width="700.2" height="389" rx="10" fill="white"/>
<path d="M673.372 599.78C673.372 527.304 644.581 457.796 593.333 406.547C542.084 355.299 472.576 326.507 400.1 326.507C327.624 326.507 258.116 355.299 206.867 406.547C155.619 457.796 126.827 527.304 126.827 599.78L400.1 599.78H673.372Z" fill="#F4F1FA"/>
<g filter="url(#filter1_d_8_2)">
<rect x="136" y="414.866" width="136.15" height="35.9825" rx="9.725" transform="rotate(-5 136 414.866)" fill="white"/>
<g filter="url(#filter2_d_8_2)">
<rect x="173.474" y="424.767" width="89.9562" height="9.725" rx="4.8625" transform="rotate(-5 173.474 424.767)" fill="#BECEE2"/>
</g>
<path fill-rule="evenodd" clip-rule="evenodd" d="M154.151 439.473L161.148 438.861C163.885 438.622 165.556 436.541 165.306 433.684L164.729 427.091C164.479 424.234 162.473 422.475 159.736 422.714L152.739 423.327C150.003 423.566 148.332 425.647 148.582 428.504L149.159 435.097C149.409 437.954 151.415 439.713 154.151 439.473ZM154.047 430.534C152.934 430.631 151.95 429.805 151.853 428.692C151.755 427.579 152.581 426.595 153.694 426.497C154.806 426.4 155.79 427.226 155.888 428.339C155.985 429.452 155.159 430.437 154.047 430.534ZM163.465 432.91C163.796 433.58 163.729 434.425 163.5 435.137C163.229 435.983 162.627 436.659 161.824 437.001C161.467 437.153 161.087 437.239 160.703 437.273L153.899 437.868C153.222 437.928 152.609 437.818 152.091 437.558C151.767 437.395 151.674 436.962 151.877 436.657C152.217 436.149 152.552 435.64 152.89 435.126C153.534 434.143 153.999 433.833 154.561 434.02C154.79 434.097 155.023 434.223 155.264 434.356C155.906 434.715 156.797 435.207 157.852 434.496C158.574 434.005 158.95 433.237 159.278 432.569L159.284 432.557C159.307 432.511 159.33 432.464 159.353 432.417L159.353 432.417L159.353 432.417C159.463 432.192 159.572 431.971 159.698 431.765C159.858 431.506 160.459 430.69 161.372 431.154C161.953 431.446 162.457 431.865 162.996 432.314C163.201 432.486 163.355 432.688 163.465 432.91Z" fill="#E1E8F1"/>
</g>
<g filter="url(#filter3_d_8_2)">
<rect x="517.313" y="398" width="136.15" height="35.9825" rx="9.725" transform="rotate(15 517.313 398)" fill="white"/>
<g filter="url(#filter4_d_8_2)">
<rect x="549.141" y="420.12" width="89.9562" height="9.725" rx="4.8625" transform="rotate(15 549.141 420.12)" fill="#BECEE2"/>
</g>
<path fill-rule="evenodd" clip-rule="evenodd" d="M525.954 427.331L532.738 429.149C535.392 429.86 537.673 428.476 538.415 425.706L540.128 419.313C540.871 416.543 539.587 414.204 536.934 413.493L530.149 411.675C527.496 410.964 525.215 412.348 524.472 415.118L522.759 421.511C522.017 424.281 523.301 426.62 525.954 427.331ZM528.913 418.895C527.834 418.606 527.192 417.493 527.481 416.414C527.77 415.335 528.882 414.692 529.962 414.981C531.04 415.27 531.682 416.383 531.393 417.462C531.104 418.541 529.991 419.184 528.913 418.895ZM536.951 424.349C537.033 425.092 536.68 425.863 536.221 426.454C535.677 427.156 534.88 427.585 534.009 427.632C533.622 427.653 533.235 427.604 532.863 427.505L526.266 425.737C525.609 425.561 525.07 425.248 524.673 424.827C524.424 424.563 524.485 424.124 524.78 423.907C525.273 423.546 525.762 423.182 526.256 422.814C527.197 422.111 527.739 421.979 528.204 422.347C528.392 422.498 528.569 422.696 528.749 422.903C529.23 423.46 529.899 424.227 531.134 423.92C531.98 423.705 532.596 423.112 533.133 422.596L533.142 422.588C533.18 422.552 533.217 422.515 533.255 422.479L533.255 422.479C533.435 422.306 533.613 422.135 533.803 421.985C534.041 421.796 534.885 421.235 535.584 421.983C536.03 422.456 536.36 423.022 536.713 423.629C536.848 423.86 536.923 424.103 536.951 424.349Z" fill="#E1E8F1"/>
</g>
<g filter="url(#filter5_d_8_2)">
<rect x="202.777" y="545.561" width="136.15" height="35.9825" rx="9.725" transform="rotate(-15 202.777 545.561)" fill="white"/>
<g filter="url(#filter6_d_8_2)">
<rect x="241.403" y="548.81" width="89.9562" height="9.72973" rx="4.86486" transform="rotate(-15 241.403 548.81)" fill="#E1E8F1"/>
</g>
<path fill-rule="evenodd" clip-rule="evenodd" d="M224.926 566.642L231.71 564.824C234.364 564.113 235.647 561.774 234.905 559.004L233.192 552.611C232.45 549.841 230.169 548.457 227.516 549.168L220.731 550.986C218.078 551.697 216.794 554.036 217.536 556.806L219.249 563.199C219.991 565.969 222.273 567.353 224.926 566.642ZM223.27 557.857C222.191 558.146 221.079 557.503 220.79 556.424C220.501 555.345 221.142 554.232 222.221 553.943C223.3 553.654 224.413 554.297 224.702 555.376C224.991 556.455 224.349 557.568 223.27 557.857ZM232.958 558.561C233.4 559.163 233.481 560.008 233.379 560.748C233.259 561.629 232.783 562.399 232.052 562.875C231.728 563.087 231.368 563.238 230.996 563.338L224.399 565.105C223.742 565.281 223.119 565.28 222.564 565.114C222.216 565.01 222.05 564.599 222.197 564.264C222.444 563.704 222.685 563.145 222.929 562.58C223.392 561.5 223.796 561.114 224.382 561.201C224.621 561.237 224.873 561.32 225.133 561.41C225.827 561.652 226.79 561.981 227.706 561.098C228.331 560.489 228.569 559.667 228.775 558.952L228.779 558.94C228.794 558.89 228.808 558.84 228.823 558.79L228.823 558.79C228.892 558.55 228.961 558.313 229.05 558.087C229.162 557.806 229.612 556.897 230.592 557.195C231.215 557.382 231.784 557.707 232.392 558.056C232.625 558.189 232.811 558.362 232.958 558.561Z" fill="#E1E8F1"/>
</g>
<g filter="url(#filter7_d_8_2)">
<rect x="332" y="367.839" width="136.15" height="35.9825" rx="9.725" fill="white"/>
<g filter="url(#filter8_d_8_2)">
<rect x="368.469" y="380.974" width="89.9562" height="9.72973" rx="4.86486" fill="#BECEE2"/>
</g>
<path fill-rule="evenodd" clip-rule="evenodd" d="M347.938 393.934H354.961C357.709 393.934 359.554 392.007 359.554 389.139V382.521C359.554 379.653 357.709 377.726 354.962 377.726H347.938C345.191 377.726 343.346 379.653 343.346 382.521V389.139C343.346 392.007 345.191 393.934 347.938 393.934ZM348.613 385.02C347.495 385.02 346.587 384.11 346.587 382.994C346.587 381.877 347.495 380.967 348.613 380.967C349.729 380.967 350.638 381.877 350.638 382.994C350.638 384.11 349.729 385.02 348.613 385.02ZM357.788 388.208C358.059 388.904 357.918 389.74 357.628 390.429C357.284 391.249 356.626 391.869 355.796 392.14C355.428 392.261 355.042 392.313 354.656 392.313H347.826C347.147 392.313 346.545 392.15 346.052 391.847C345.743 391.656 345.689 391.216 345.918 390.931C346.301 390.454 346.679 389.976 347.06 389.493C347.787 388.57 348.277 388.302 348.821 388.537C349.042 388.634 349.264 388.78 349.492 388.934C350.1 389.347 350.945 389.915 352.058 389.298C352.82 388.872 353.262 388.14 353.647 387.502L353.653 387.492C353.68 387.447 353.707 387.402 353.734 387.358L353.734 387.358C353.864 387.144 353.991 386.933 354.136 386.738C354.316 386.495 354.987 385.734 355.856 386.276C356.409 386.617 356.875 387.079 357.372 387.573C357.562 387.762 357.698 387.977 357.788 388.208Z" fill="#E1E8F1"/>
</g>
<rect x="297.049" y="283.717" width="205.684" height="13.615" rx="6.8075" fill="#C0D4E3"/>
<rect x="347.585" y="266.212" width="105" height="7.385" rx="3.6925" fill="#E1E8F1"/>
<rect x="73.6799" y="230.64" width="59.048" height="9.76" rx="4.88" fill="#E1E8F1"/>
<rect x="151.76" y="230.64" width="48.8" height="9.76" rx="4.88" fill="#E1E8F1"/>
<rect x="220.08" y="230.64" width="48.8" height="9.76" rx="4.88" fill="#E1E8F1"/>
<rect x="595.84" y="223.688" width="73" height="23" rx="11.5" fill="#169FD6"/>
<rect x="609.904" y="231.008" width="45.872" height="8.36" rx="4.18" fill="#2C89A7"/>
<path fill-rule="evenodd" clip-rule="evenodd" d="M406.193 478.007C406.23 478.043 406.265 478.08 406.299 478.118L416.134 489.037C416.991 489.989 416.899 491.441 415.929 492.282C415.501 492.653 414.949 492.858 414.378 492.858H386.091C384.797 492.858 383.748 491.829 383.748 490.559C383.748 489.939 384.004 489.344 384.457 488.912L388.47 485.082C389.206 484.379 390.324 484.229 391.226 484.711L392.855 485.583C393.771 486.073 394.907 485.91 395.641 485.183L402.879 478.022C403.79 477.12 405.274 477.114 406.193 478.007ZM394.092 473.462C395.878 473.462 397.325 474.909 397.325 476.695C397.325 478.48 395.878 479.927 394.092 479.927C392.307 479.927 390.86 478.48 390.86 476.695C390.86 474.909 392.307 473.462 394.092 473.462Z" fill="#C0D4E3"/>
<g filter="url(#filter9_d_8_2)">
<path d="M117.096 265.355L93.5125 251L98.6394 278.685L104.792 268.432L117.096 265.355Z" fill="#1ABCFE"/>
<path d="M94.0456 250.124L92.0866 248.932L92.5042 251.187L97.6311 278.872L98.1245 281.537L99.5187 279.213L105.452 269.323L117.345 266.35L119.725 265.755L117.63 264.48L94.0456 250.124Z" stroke="white" stroke-width="2.05078"/>
</g>
<g filter="url(#filter10_d_8_2)">
<rect width="163.406" height="34.2031" transform="translate(120.173 287.914)" fill="#1ABCFE"/>
<path d="M129.41 299.117V297.444H141.088V299.117H136.192V313.016H134.306V299.117H129.41ZM145.657 305.99V313.016H143.862V297.444H145.657V303.162H145.809C146.082 302.558 146.493 302.079 147.04 301.725C147.593 301.365 148.328 301.185 149.245 301.185C150.041 301.185 150.738 301.344 151.336 301.664C151.934 301.978 152.398 302.462 152.728 303.116C153.062 303.765 153.23 304.591 153.23 305.595V313.016H151.435V305.716C151.435 304.789 151.194 304.072 150.713 303.565C150.236 303.053 149.575 302.797 148.728 302.797C148.14 302.797 147.613 302.921 147.147 303.169C146.686 303.418 146.321 303.78 146.052 304.257C145.788 304.733 145.657 305.311 145.657 305.99ZM161.364 313.259C160.309 313.259 159.384 313.008 158.589 312.506C157.798 312.004 157.179 311.302 156.733 310.4C156.292 309.498 156.072 308.443 156.072 307.237C156.072 306.021 156.292 304.959 156.733 304.051C157.179 303.144 157.798 302.439 158.589 301.938C159.384 301.436 160.309 301.185 161.364 301.185C162.418 301.185 163.341 301.436 164.131 301.938C164.927 302.439 165.546 303.144 165.987 304.051C166.433 304.959 166.656 306.021 166.656 307.237C166.656 308.443 166.433 309.498 165.987 310.4C165.546 311.302 164.927 312.004 164.131 312.506C163.341 313.008 162.418 313.259 161.364 313.259ZM161.364 311.647C162.165 311.647 162.824 311.442 163.341 311.031C163.858 310.62 164.24 310.081 164.489 309.412C164.737 308.742 164.861 308.018 164.861 307.237C164.861 306.456 164.737 305.729 164.489 305.055C164.24 304.381 163.858 303.836 163.341 303.42C162.824 303.005 162.165 302.797 161.364 302.797C160.563 302.797 159.904 303.005 159.387 303.42C158.87 303.836 158.487 304.381 158.239 305.055C157.99 305.729 157.866 306.456 157.866 307.237C157.866 308.018 157.99 308.742 158.239 309.412C158.487 310.081 158.87 310.62 159.387 311.031C159.904 311.442 160.563 311.647 161.364 311.647ZM169.502 313.016V301.337H171.235V303.162H171.387C171.631 302.538 172.023 302.054 172.566 301.709C173.108 301.36 173.76 301.185 174.52 301.185C175.29 301.185 175.932 301.36 176.444 301.709C176.961 302.054 177.363 302.538 177.652 303.162H177.774C178.073 302.558 178.522 302.079 179.12 301.725C179.718 301.365 180.435 301.185 181.272 301.185C182.316 301.185 183.17 301.512 183.834 302.166C184.498 302.814 184.83 303.826 184.83 305.199V313.016H183.036V305.199C183.036 304.338 182.8 303.722 182.328 303.352C181.857 302.982 181.302 302.797 180.663 302.797C179.842 302.797 179.206 303.045 178.755 303.542C178.304 304.034 178.078 304.657 178.078 305.412V313.016H176.253V305.017C176.253 304.353 176.038 303.818 175.607 303.413C175.176 303.002 174.621 302.797 173.942 302.797C173.476 302.797 173.04 302.921 172.634 303.169C172.234 303.418 171.909 303.762 171.661 304.203C171.418 304.639 171.296 305.144 171.296 305.716V313.016H169.502ZM191.654 313.289C190.914 313.289 190.243 313.15 189.64 312.871C189.036 312.587 188.557 312.179 188.203 311.647C187.848 311.11 187.67 310.461 187.67 309.7C187.67 309.031 187.802 308.489 188.066 308.073C188.329 307.653 188.682 307.323 189.123 307.085C189.564 306.847 190.05 306.669 190.582 306.553C191.12 306.431 191.66 306.335 192.202 306.264C192.912 306.173 193.487 306.104 193.928 306.059C194.374 306.008 194.698 305.924 194.901 305.808C195.109 305.691 195.213 305.488 195.213 305.199V305.139C195.213 304.388 195.007 303.805 194.597 303.39C194.191 302.974 193.576 302.766 192.749 302.766C191.893 302.766 191.221 302.954 190.734 303.329C190.248 303.704 189.906 304.104 189.708 304.53L188.005 303.922C188.309 303.212 188.715 302.66 189.221 302.264C189.733 301.864 190.291 301.585 190.894 301.428C191.502 301.266 192.1 301.185 192.688 301.185C193.064 301.185 193.494 301.23 193.981 301.322C194.473 301.408 194.947 301.588 195.403 301.862C195.864 302.135 196.247 302.548 196.551 303.101C196.855 303.653 197.007 304.393 197.007 305.321V313.016H195.213V311.434H195.122C195 311.687 194.797 311.959 194.513 312.248C194.229 312.537 193.852 312.782 193.38 312.985C192.909 313.188 192.334 313.289 191.654 313.289ZM191.928 311.677C192.638 311.677 193.236 311.538 193.723 311.259C194.214 310.98 194.584 310.62 194.833 310.179C195.086 309.738 195.213 309.275 195.213 308.788V307.146C195.137 307.237 194.969 307.321 194.711 307.397C194.458 307.468 194.164 307.531 193.829 307.587C193.499 307.637 193.178 307.683 192.863 307.724C192.554 307.759 192.303 307.79 192.111 307.815C191.644 307.876 191.208 307.975 190.803 308.111C190.402 308.243 190.078 308.443 189.83 308.712C189.586 308.976 189.465 309.336 189.465 309.792C189.465 310.415 189.695 310.887 190.157 311.206C190.623 311.52 191.213 311.677 191.928 311.677ZM208.662 303.952L207.05 304.409C206.948 304.14 206.799 303.879 206.601 303.625C206.409 303.367 206.145 303.154 205.81 302.987C205.476 302.82 205.048 302.736 204.525 302.736C203.811 302.736 203.215 302.901 202.739 303.23C202.267 303.555 202.032 303.968 202.032 304.469C202.032 304.915 202.194 305.268 202.518 305.526C202.843 305.785 203.35 306 204.039 306.173L205.772 306.598C206.817 306.852 207.595 307.24 208.107 307.762C208.619 308.279 208.875 308.945 208.875 309.761C208.875 310.43 208.682 311.029 208.297 311.556C207.917 312.083 207.384 312.498 206.7 312.803C206.016 313.107 205.22 313.259 204.313 313.259C203.121 313.259 202.136 313 201.355 312.483C200.574 311.966 200.08 311.211 199.872 310.218L201.575 309.792C201.738 310.42 202.044 310.892 202.495 311.206C202.952 311.52 203.547 311.677 204.282 311.677C205.119 311.677 205.783 311.5 206.274 311.145C206.771 310.785 207.019 310.354 207.019 309.853C207.019 309.447 206.877 309.107 206.594 308.834C206.31 308.555 205.874 308.347 205.286 308.21L203.339 307.754C202.27 307.501 201.484 307.108 200.982 306.576C200.486 306.038 200.237 305.367 200.237 304.561C200.237 303.902 200.422 303.319 200.792 302.812C201.167 302.305 201.677 301.907 202.321 301.618C202.969 301.329 203.704 301.185 204.525 301.185C205.681 301.185 206.588 301.438 207.247 301.945C207.911 302.452 208.383 303.121 208.662 303.952ZM226.57 301.337C226.479 300.566 226.109 299.968 225.46 299.543C224.812 299.117 224.016 298.904 223.073 298.904C222.384 298.904 221.78 299.015 221.263 299.238C220.751 299.461 220.351 299.768 220.062 300.158C219.778 300.549 219.636 300.992 219.636 301.489C219.636 301.905 219.735 302.262 219.933 302.561C220.136 302.855 220.394 303.101 220.708 303.299C221.023 303.491 221.352 303.651 221.697 303.778C222.041 303.899 222.358 303.998 222.647 304.074L224.229 304.5C224.634 304.606 225.085 304.753 225.582 304.941C226.084 305.128 226.563 305.384 227.019 305.709C227.48 306.028 227.86 306.439 228.16 306.94C228.459 307.442 228.608 308.058 228.608 308.788C228.608 309.63 228.388 310.39 227.947 311.069C227.511 311.748 226.872 312.288 226.031 312.689C225.194 313.089 224.178 313.289 222.982 313.289C221.867 313.289 220.901 313.109 220.085 312.749C219.274 312.39 218.635 311.888 218.169 311.244C217.708 310.6 217.447 309.853 217.386 309.001H219.332C219.383 309.589 219.581 310.076 219.925 310.461C220.275 310.841 220.716 311.125 221.248 311.312C221.785 311.495 222.363 311.586 222.982 311.586C223.701 311.586 224.348 311.47 224.921 311.236C225.493 310.998 225.947 310.669 226.282 310.248C226.616 309.822 226.783 309.325 226.783 308.758C226.783 308.241 226.639 307.82 226.35 307.496C226.061 307.171 225.681 306.908 225.209 306.705C224.738 306.502 224.229 306.325 223.681 306.173L221.765 305.625C220.549 305.275 219.586 304.776 218.876 304.127C218.166 303.478 217.812 302.629 217.812 301.58C217.812 300.708 218.047 299.948 218.519 299.299C218.995 298.645 219.634 298.138 220.435 297.779C221.241 297.414 222.14 297.231 223.134 297.231C224.137 297.231 225.03 297.411 225.81 297.771C226.591 298.126 227.209 298.612 227.665 299.231C228.127 299.849 228.37 300.551 228.395 301.337H226.57ZM231.572 313.016V301.337H233.306V303.162H233.458C233.701 302.538 234.094 302.054 234.636 301.709C235.179 301.36 235.83 301.185 236.59 301.185C237.361 301.185 238.002 301.36 238.514 301.709C239.031 302.054 239.434 302.538 239.723 303.162H239.844C240.144 302.558 240.592 302.079 241.19 301.725C241.788 301.365 242.506 301.185 243.342 301.185C244.386 301.185 245.24 301.512 245.904 302.166C246.568 302.814 246.9 303.826 246.9 305.199V313.016H245.106V305.199C245.106 304.338 244.87 303.722 244.399 303.352C243.927 302.982 243.372 302.797 242.734 302.797C241.913 302.797 241.276 303.045 240.825 303.542C240.374 304.034 240.149 304.657 240.149 305.412V313.016H238.324V305.017C238.324 304.353 238.108 303.818 237.678 303.413C237.247 303.002 236.692 302.797 236.012 302.797C235.546 302.797 235.11 302.921 234.705 303.169C234.304 303.418 233.98 303.762 233.731 304.203C233.488 304.639 233.366 305.144 233.366 305.716V313.016H231.572ZM250.288 313.016V301.337H252.083V313.016H250.288ZM251.201 299.39C250.851 299.39 250.549 299.271 250.296 299.033C250.047 298.795 249.923 298.508 249.923 298.174C249.923 297.839 250.047 297.553 250.296 297.315C250.549 297.077 250.851 296.957 251.201 296.957C251.55 296.957 251.849 297.077 252.098 297.315C252.351 297.553 252.478 297.839 252.478 298.174C252.478 298.508 252.351 298.795 252.098 299.033C251.849 299.271 251.55 299.39 251.201 299.39ZM260.555 301.337V302.858H254.503V301.337H260.555ZM256.267 298.539H258.061V309.67C258.061 310.177 258.135 310.557 258.282 310.811C258.434 311.059 258.626 311.226 258.86 311.312C259.098 311.393 259.349 311.434 259.612 311.434C259.81 311.434 259.972 311.424 260.099 311.404C260.226 311.378 260.327 311.358 260.403 311.343L260.768 312.955C260.646 313 260.477 313.046 260.259 313.092C260.041 313.142 259.764 313.168 259.43 313.168C258.923 313.168 258.426 313.059 257.94 312.841C257.458 312.623 257.058 312.291 256.738 311.845C256.424 311.399 256.267 310.836 256.267 310.157V298.539ZM265.407 305.99V313.016H263.612V297.444H265.407V303.162H265.559C265.832 302.558 266.243 302.079 266.79 301.725C267.343 301.365 268.078 301.185 268.995 301.185C269.791 301.185 270.488 301.344 271.086 301.664C271.684 301.978 272.148 302.462 272.478 303.116C272.812 303.765 272.979 304.591 272.979 305.595V313.016H271.185V305.716C271.185 304.789 270.944 304.072 270.463 303.565C269.986 303.053 269.325 302.797 268.478 302.797C267.89 302.797 267.363 302.921 266.897 303.169C266.436 303.418 266.071 303.78 265.802 304.257C265.538 304.733 265.407 305.311 265.407 305.99Z" fill="white"/>
</g>
<g filter="url(#filter11_d_8_2)">
<path d="M559.588 473.358L536 459L541.128 486.69L547.281 476.434L559.588 473.358Z" fill="#0FA658"/>
<path d="M536.587 458.036L534.431 456.724L534.89 459.206L540.018 486.895L540.561 489.828L542.095 487.27L548.008 477.416L559.861 474.453L562.481 473.798L560.174 472.394L536.587 458.036Z" stroke="white" stroke-width="2.25714"/>
</g>
<g filter="url(#filter12_d_8_2)">
<rect width="140.057" height="35.0286" transform="translate(561.775 496.06)" fill="#0FA658"/>
<path d="M581.205 509.896C581.113 509.125 580.743 508.527 580.095 508.101C579.446 507.676 578.65 507.463 577.707 507.463C577.018 507.463 576.415 507.574 575.898 507.797C575.386 508.02 574.985 508.327 574.696 508.717C574.412 509.108 574.271 509.551 574.271 510.048C574.271 510.463 574.369 510.821 574.567 511.12C574.77 511.414 575.028 511.66 575.343 511.857C575.657 512.05 575.986 512.21 576.331 512.336C576.676 512.458 576.993 512.557 577.281 512.633L578.863 513.059C579.268 513.165 579.72 513.312 580.216 513.5C580.718 513.687 581.197 513.943 581.653 514.268C582.115 514.587 582.495 514.998 582.794 515.499C583.093 516.001 583.242 516.617 583.242 517.347C583.242 518.188 583.022 518.949 582.581 519.628C582.145 520.307 581.506 520.847 580.665 521.247C579.829 521.648 578.812 521.848 577.616 521.848C576.501 521.848 575.535 521.668 574.719 521.308C573.908 520.948 573.269 520.447 572.803 519.803C572.342 519.159 572.081 518.411 572.02 517.56H573.966C574.017 518.148 574.215 518.634 574.559 519.02C574.909 519.4 575.35 519.684 575.882 519.871C576.42 520.054 576.998 520.145 577.616 520.145C578.336 520.145 578.982 520.028 579.555 519.795C580.128 519.557 580.581 519.227 580.916 518.807C581.25 518.381 581.418 517.884 581.418 517.317C581.418 516.8 581.273 516.379 580.984 516.054C580.695 515.73 580.315 515.466 579.844 515.264C579.372 515.061 578.863 514.883 578.315 514.731L576.399 514.184C575.183 513.834 574.22 513.335 573.51 512.686C572.801 512.037 572.446 511.188 572.446 510.139C572.446 509.267 572.681 508.507 573.153 507.858C573.629 507.204 574.268 506.697 575.069 506.337C575.875 505.972 576.775 505.79 577.768 505.79C578.772 505.79 579.664 505.97 580.444 506.33C581.225 506.685 581.843 507.171 582.3 507.79C582.761 508.408 583.004 509.11 583.03 509.896H581.205ZM591.285 509.896V511.416H585.233V509.896H591.285ZM586.997 507.098H588.791V518.229C588.791 518.736 588.865 519.116 589.012 519.369C589.164 519.618 589.357 519.785 589.59 519.871C589.828 519.952 590.079 519.993 590.343 519.993C590.54 519.993 590.702 519.983 590.829 519.962C590.956 519.937 591.057 519.917 591.133 519.902L591.498 521.514C591.377 521.559 591.207 521.605 590.989 521.65C590.771 521.701 590.495 521.726 590.16 521.726C589.653 521.726 589.156 521.617 588.67 521.399C588.188 521.182 587.788 520.85 587.469 520.403C587.154 519.957 586.997 519.395 586.997 518.716V507.098ZM598.863 521.818C597.737 521.818 596.767 521.569 595.951 521.073C595.14 520.571 594.514 519.871 594.073 518.974C593.637 518.072 593.419 517.023 593.419 515.826C593.419 514.63 593.637 513.576 594.073 512.663C594.514 511.746 595.127 511.031 595.913 510.519C596.703 510.002 597.626 509.744 598.68 509.744C599.288 509.744 599.889 509.845 600.482 510.048C601.075 510.251 601.615 510.58 602.102 511.036C602.588 511.487 602.976 512.085 603.265 512.831C603.554 513.576 603.698 514.493 603.698 515.583V516.343H594.696V514.792H601.874C601.874 514.133 601.742 513.545 601.478 513.028C601.22 512.511 600.85 512.103 600.368 511.804C599.892 511.505 599.329 511.356 598.68 511.356C597.965 511.356 597.347 511.533 596.825 511.888C596.308 512.238 595.91 512.694 595.631 513.256C595.352 513.819 595.213 514.422 595.213 515.066V516.1C595.213 516.982 595.365 517.73 595.669 518.343C595.978 518.951 596.407 519.415 596.954 519.734C597.502 520.049 598.138 520.206 598.863 520.206C599.334 520.206 599.76 520.14 600.14 520.008C600.525 519.871 600.857 519.668 601.136 519.4C601.415 519.126 601.63 518.786 601.782 518.381L603.516 518.868C603.333 519.456 603.027 519.973 602.596 520.419C602.165 520.86 601.633 521.204 600.999 521.453C600.366 521.696 599.653 521.818 598.863 521.818ZM608.329 506.003V521.574H606.535V506.003H608.329ZM613.517 506.003V521.574H611.723V506.003H613.517ZM620.347 521.848C619.607 521.848 618.936 521.709 618.333 521.43C617.729 521.146 617.25 520.738 616.896 520.206C616.541 519.668 616.363 519.02 616.363 518.259C616.363 517.59 616.495 517.048 616.759 516.632C617.022 516.212 617.375 515.882 617.816 515.644C618.257 515.406 618.743 515.228 619.275 515.112C619.813 514.99 620.353 514.894 620.895 514.823C621.605 514.731 622.18 514.663 622.621 514.617C623.067 514.567 623.391 514.483 623.594 514.366C623.802 514.25 623.906 514.047 623.906 513.758V513.697C623.906 512.947 623.701 512.364 623.29 511.949C622.884 511.533 622.269 511.325 621.442 511.325C620.586 511.325 619.914 511.513 619.427 511.888C618.941 512.263 618.599 512.663 618.401 513.089L616.698 512.481C617.002 511.771 617.408 511.219 617.914 510.823C618.426 510.423 618.984 510.144 619.587 509.987C620.195 509.825 620.794 509.744 621.382 509.744C621.757 509.744 622.187 509.789 622.674 509.881C623.166 509.967 623.64 510.147 624.096 510.42C624.557 510.694 624.94 511.107 625.244 511.66C625.548 512.212 625.7 512.952 625.7 513.88V521.574H623.906V519.993H623.815C623.693 520.246 623.49 520.518 623.206 520.806C622.922 521.095 622.545 521.341 622.073 521.544C621.602 521.747 621.027 521.848 620.347 521.848ZM620.621 520.236C621.331 520.236 621.929 520.097 622.416 519.818C622.907 519.539 623.277 519.179 623.526 518.738C623.779 518.297 623.906 517.834 623.906 517.347V515.705C623.83 515.796 623.663 515.88 623.404 515.956C623.151 516.027 622.857 516.09 622.522 516.146C622.193 516.196 621.871 516.242 621.556 516.282C621.247 516.318 620.996 516.348 620.804 516.374C620.337 516.435 619.901 516.533 619.496 516.67C619.095 516.802 618.771 517.002 618.523 517.271C618.279 517.534 618.158 517.894 618.158 518.351C618.158 518.974 618.388 519.445 618.85 519.765C619.316 520.079 619.906 520.236 620.621 520.236ZM643.97 509.896C643.879 509.125 643.509 508.527 642.86 508.101C642.211 507.676 641.415 507.463 640.473 507.463C639.783 507.463 639.18 507.574 638.663 507.797C638.151 508.02 637.751 508.327 637.462 508.717C637.178 509.108 637.036 509.551 637.036 510.048C637.036 510.463 637.135 510.821 637.332 511.12C637.535 511.414 637.794 511.66 638.108 511.857C638.422 512.05 638.752 512.21 639.096 512.336C639.441 512.458 639.758 512.557 640.047 512.633L641.628 513.059C642.034 513.165 642.485 513.312 642.982 513.5C643.484 513.687 643.963 513.943 644.419 514.268C644.88 514.587 645.26 514.998 645.559 515.499C645.858 516.001 646.008 516.617 646.008 517.347C646.008 518.188 645.787 518.949 645.346 519.628C644.91 520.307 644.272 520.847 643.43 521.247C642.594 521.648 641.578 521.848 640.381 521.848C639.266 521.848 638.301 521.668 637.485 521.308C636.674 520.948 636.035 520.447 635.569 519.803C635.107 519.159 634.846 518.411 634.785 517.56H636.732C636.783 518.148 636.98 518.634 637.325 519.02C637.675 519.4 638.116 519.684 638.648 519.871C639.185 520.054 639.763 520.145 640.381 520.145C641.101 520.145 641.747 520.028 642.32 519.795C642.893 519.557 643.347 519.227 643.681 518.807C644.016 518.381 644.183 517.884 644.183 517.317C644.183 516.8 644.039 516.379 643.75 516.054C643.461 515.73 643.081 515.466 642.609 515.264C642.138 515.061 641.628 514.883 641.081 514.731L639.165 514.184C637.948 513.834 636.985 513.335 636.276 512.686C635.566 512.037 635.211 511.188 635.211 510.139C635.211 509.267 635.447 508.507 635.918 507.858C636.395 507.204 637.033 506.697 637.834 506.337C638.64 505.972 639.54 505.79 640.533 505.79C641.537 505.79 642.429 505.97 643.21 506.33C643.99 506.685 644.609 507.171 645.065 507.79C645.526 508.408 645.77 509.11 645.795 509.896H643.97ZM648.972 521.574V509.896H650.705V511.721H650.857C651.101 511.097 651.494 510.613 652.036 510.268C652.578 509.919 653.23 509.744 653.99 509.744C654.76 509.744 655.402 509.919 655.914 510.268C656.431 510.613 656.834 511.097 657.123 511.721H657.244C657.543 511.117 657.992 510.638 658.59 510.284C659.188 509.924 659.905 509.744 660.742 509.744C661.786 509.744 662.64 510.071 663.304 510.724C663.968 511.373 664.3 512.385 664.3 513.758V521.574H662.506V513.758C662.506 512.896 662.27 512.281 661.799 511.911C661.327 511.541 660.772 511.356 660.133 511.356C659.312 511.356 658.676 511.604 658.225 512.101C657.774 512.592 657.548 513.216 657.548 513.971V521.574H655.724V513.576C655.724 512.912 655.508 512.377 655.077 511.971C654.646 511.561 654.091 511.356 653.412 511.356C652.946 511.356 652.51 511.48 652.104 511.728C651.704 511.977 651.38 512.321 651.131 512.762C650.888 513.198 650.766 513.702 650.766 514.275V521.574H648.972ZM667.688 521.574V509.896H669.482V521.574H667.688ZM668.6 507.949C668.25 507.949 667.949 507.83 667.695 507.592C667.447 507.354 667.323 507.067 667.323 506.733C667.323 506.398 667.447 506.112 667.695 505.874C667.949 505.635 668.25 505.516 668.6 505.516C668.95 505.516 669.249 505.635 669.497 505.874C669.751 506.112 669.878 506.398 669.878 506.733C669.878 507.067 669.751 507.354 669.497 507.592C669.249 507.83 668.95 507.949 668.6 507.949ZM677.955 509.896V511.416H671.903V509.896H677.955ZM673.667 507.098H675.461V518.229C675.461 518.736 675.534 519.116 675.681 519.369C675.833 519.618 676.026 519.785 676.259 519.871C676.497 519.952 676.748 519.993 677.012 519.993C677.21 519.993 677.372 519.983 677.499 519.962C677.625 519.937 677.727 519.917 677.803 519.902L678.168 521.514C678.046 521.559 677.876 521.605 677.658 521.65C677.44 521.701 677.164 521.726 676.829 521.726C676.323 521.726 675.826 521.617 675.339 521.399C674.858 521.182 674.457 520.85 674.138 520.403C673.824 519.957 673.667 519.395 673.667 518.716V507.098ZM682.806 514.549V521.574H681.012V506.003H682.806V511.721H682.958C683.232 511.117 683.643 510.638 684.19 510.284C684.743 509.924 685.478 509.744 686.395 509.744C687.191 509.744 687.888 509.903 688.486 510.223C689.084 510.537 689.548 511.021 689.877 511.675C690.212 512.324 690.379 513.15 690.379 514.154V521.574H688.585V514.275C688.585 513.348 688.344 512.63 687.862 512.123C687.386 511.612 686.724 511.356 685.878 511.356C685.29 511.356 684.763 511.48 684.296 511.728C683.835 511.977 683.47 512.339 683.202 512.815C682.938 513.292 682.806 513.87 682.806 514.549Z" fill="white"/>
</g>
</g>
<rect x="49.5" y="202.5" width="701.2" height="390" rx="10.5" stroke="#9CA3AF" stroke-opacity="0.1"/>
</g>
<g filter="url(#filter13_d_8_2)">
<rect x="454" y="580.238" width="136.15" height="35.9825" rx="9.725" transform="rotate(-15 454 580.238)" fill="white"/>
<g filter="url(#filter14_d_8_2)">
<rect x="492.626" y="583.487" width="89.9562" height="9.72973" rx="4.86486" transform="rotate(-15 492.626 583.487)" fill="#BECEE2"/>
</g>
<path fill-rule="evenodd" clip-rule="evenodd" d="M476.149 601.319L482.933 599.502C485.587 598.791 486.871 596.451 486.128 593.681L484.415 587.288C483.673 584.518 481.392 583.134 478.739 583.845L471.954 585.663C469.301 586.374 468.017 588.713 468.759 591.484L470.472 597.876C471.215 600.646 473.496 602.03 476.149 601.319ZM474.493 592.534C473.414 592.823 472.302 592.18 472.013 591.101C471.724 590.022 472.365 588.909 473.445 588.62C474.523 588.331 475.636 588.974 475.925 590.053C476.214 591.132 475.572 592.245 474.493 592.534ZM484.181 593.239C484.624 593.841 484.704 594.685 484.602 595.426C484.482 596.306 484.007 597.076 483.275 597.553C482.951 597.764 482.591 597.915 482.219 598.015L475.622 599.783C474.965 599.959 474.342 599.957 473.787 599.791C473.44 599.687 473.273 599.276 473.42 598.941C473.667 598.382 473.908 597.822 474.152 597.257C474.615 596.177 475.019 595.792 475.605 595.878C475.844 595.914 476.096 595.998 476.356 596.087C477.05 596.329 478.013 596.659 478.929 595.775C479.554 595.166 479.792 594.345 479.999 593.629L480.002 593.617C480.017 593.567 480.031 593.517 480.046 593.467L480.046 593.467C480.115 593.227 480.184 592.99 480.273 592.765C480.385 592.483 480.836 591.574 481.815 591.873C482.438 592.059 483.007 592.385 483.616 592.733C483.848 592.867 484.034 593.039 484.181 593.239Z" fill="#E1E8F1"/>
</g>
<g filter="url(#filter15_d_8_2)">
<rect x="699" y="89" width="250.897" height="170" rx="10" transform="rotate(90 699 89)" fill="white"/>
<rect x="699.5" y="88.5" width="251.897" height="171" rx="10.5" transform="rotate(90 699.5 88.5)" stroke="#9CA3AF" stroke-opacity="0.1"/>
<g filter="url(#filter16_d_8_2)">
<circle cx="556.586" cy="116.586" r="9.72313" fill="white" stroke="#E1E8F1" stroke-width="0.553738"/>
<path d="M558.223 117.207C558.149 117.278 558.116 117.38 558.133 117.481L558.384 118.87C558.405 118.988 558.355 119.107 558.256 119.175C558.16 119.245 558.031 119.254 557.926 119.197L556.676 118.545C556.632 118.522 556.584 118.51 556.534 118.508H556.458C556.431 118.512 556.405 118.521 556.382 118.534L555.131 119.189C555.069 119.22 554.999 119.231 554.93 119.22C554.763 119.188 554.652 119.029 554.679 118.861L554.93 117.472C554.947 117.371 554.913 117.268 554.84 117.196L553.821 116.207C553.735 116.125 553.706 116 553.745 115.888C553.783 115.776 553.879 115.695 553.996 115.676L555.399 115.473C555.506 115.462 555.599 115.397 555.647 115.301L556.266 114.033C556.281 114.005 556.299 113.979 556.322 113.957L556.348 113.937C556.361 113.922 556.376 113.91 556.393 113.9L556.424 113.889L556.472 113.869H556.591C556.697 113.88 556.79 113.944 556.839 114.039L557.466 115.301C557.511 115.393 557.599 115.457 557.7 115.473L559.104 115.676C559.222 115.693 559.321 115.775 559.36 115.888C559.397 116.001 559.366 116.126 559.279 116.207L558.223 117.207Z" fill="#C0D4E3"/>
</g>
<g clip-path="url(#clip2_8_2)">
<rect x="546.586" y="198.604" width="134.558" height="6.64486" rx="3.32243" fill="#E1E8F1"/>
<rect x="546.586" y="184.207" width="116.839" height="6.64486" rx="3.32243" fill="#E1E8F1"/>
</g>
<g clip-path="url(#clip3_8_2)">
<rect x="546.586" y="257.552" width="60.9112" height="6.64486" rx="3.32243" fill="#E1E8F1"/>
</g>
<rect x="546.586" y="294.172" width="135" height="28" rx="14" fill="#E1E8F1"/>
<rect x="587.561" y="302.478" width="52.0514" height="11.3879" rx="5.69393" fill="#BECEE2"/>
<rect x="546.586" y="159" width="99.1192" height="15.5047" rx="7.75234" fill="#C0D4E3"/>
<rect x="546.586" y="232.345" width="51.4977" height="15.5047" rx="7.75234" fill="#C0D4E3"/>
</g>
<g filter="url(#filter17_d_8_2)">
<rect x="115" y="475" width="229" height="296" rx="10" fill="white"/>
<rect x="114.5" y="474.5" width="230" height="297" rx="10.5" stroke="#9CA3AF" stroke-opacity="0.1"/>
</g>
<rect x="137.16" y="674.604" width="150.134" height="16.066" rx="8.033" fill="#C0D4E3"/>
<rect x="137.16" y="726.68" width="108.584" height="11.08" rx="5.54" fill="#E1E8F1"/>
<rect x="137.16" y="706.736" width="162.876" height="11.08" rx="5.54" fill="#E1E8F1"/>
<rect x="137.16" y="497.16" width="185.078" height="149.744" rx="10" fill="#E1E8F1"/>
<path fill-rule="evenodd" clip-rule="evenodd" d="M234.561 568.254C234.588 568.28 234.614 568.307 234.64 568.336L241.943 576.445C242.579 577.151 242.511 578.23 241.791 578.854C241.473 579.13 241.063 579.282 240.639 579.282H219.632C218.671 579.282 217.892 578.518 217.892 577.575C217.892 577.114 218.082 576.673 218.419 576.351L221.399 573.507C221.946 572.985 222.776 572.874 223.446 573.232L224.655 573.879C225.336 574.243 226.179 574.122 226.725 573.582L232.099 568.264C232.776 567.595 233.878 567.59 234.561 568.254ZM225.574 564.878C226.9 564.878 227.975 565.953 227.975 567.279C227.975 568.605 226.9 569.679 225.574 569.679C224.248 569.679 223.174 568.605 223.174 567.279C223.174 565.953 224.248 564.878 225.574 564.878Z" fill="#C0D4E3"/>
<g filter="url(#filter18_d_8_2)">
<rect x="584" y="50" width="148" height="60" rx="10" fill="white"/>
<rect x="651" y="72.097" width="70.8485" height="16.2162" rx="8.10811" fill="#C0D4E3"/>
<path d="M639 80C639 92.7025 628.703 103 616 103C603.297 103 593 92.7025 593 80C593 67.2975 603.297 57 616 57C628.703 57 639 67.2975 639 80Z" fill="#E1E8F1"/>
<rect x="583.5" y="49.5" width="149" height="61" rx="10.5" stroke="#9CA3AF" stroke-opacity="0.1"/>
</g>
<g filter="url(#filter19_d_8_2)">
<rect x="98" y="9" width="272.881" height="174.051" rx="10" fill="white"/>
<rect x="97.5" y="8.5" width="273.881" height="175.051" rx="10.5" stroke="#9CA3AF" stroke-opacity="0.1"/>
</g>
<rect x="109" y="20" width="250.919" height="152.089" rx="10" fill="#F4F1FA"/>
<path fill-rule="evenodd" clip-rule="evenodd" d="M239.48 92.1736C239.508 92.2001 239.534 92.2274 239.559 92.2556L246.863 100.365C247.499 101.071 247.431 102.15 246.711 102.774C246.393 103.05 245.983 103.202 245.559 103.202H224.552C223.591 103.202 222.812 102.438 222.812 101.495C222.812 101.034 223.002 100.593 223.339 100.271L226.319 97.4272C226.866 96.9051 227.695 96.7936 228.365 97.152L229.575 97.7992C230.256 98.1631 231.099 98.0421 231.644 97.5024L237.019 92.184C237.696 91.5145 238.798 91.5098 239.48 92.1736ZM230.494 88.798C231.82 88.798 232.895 89.8728 232.895 91.1987C232.895 92.5245 231.82 93.5993 230.494 93.5993C229.168 93.5993 228.094 92.5245 228.094 91.1987C228.094 89.8728 229.168 88.798 230.494 88.798Z" fill="#C0D4E3"/>
<g filter="url(#filter20_d_8_2)">
<rect x="296" y="108" width="210" height="111" rx="10" fill="white"/>
<rect x="295.5" y="107.5" width="211" height="112" rx="10.5" stroke="#9CA3AF" stroke-opacity="0.1"/>
</g>
<rect x="316" y="132" width="144" height="14" rx="7" fill="#C0D4E3"/>
<rect x="316" y="152.454" width="171" height="14" rx="7" fill="#C0D4E3"/>
<g clip-path="url(#clip4_8_2)">
<rect x="316" y="191.744" width="169.138" height="6.11344" rx="3.05672" fill="#E1E8F1"/>
<rect x="316" y="177.498" width="147.232" height="6.11344" rx="3.05672" fill="#E1E8F1"/>
</g>
<g filter="url(#filter21_d_8_2)">
<rect x="400" y="644" width="281" height="121.576" rx="11.4694" fill="white"/>
<rect x="399.5" y="643.5" width="282" height="122.576" rx="11.9694" stroke="#9CA3AF" stroke-opacity="0.1"/>
</g>
<path d="M520.39 743.746C520.266 743.865 520.209 744.039 520.237 744.209L520.662 746.56C520.698 746.76 520.614 746.961 520.447 747.076C520.284 747.196 520.066 747.21 519.888 747.115L517.771 746.011C517.698 745.972 517.616 745.95 517.532 745.948H517.403C517.358 745.955 517.314 745.969 517.274 745.991L515.157 747.1C515.052 747.153 514.934 747.172 514.818 747.153C514.535 747.099 514.346 746.83 514.392 746.545L514.818 744.194C514.846 744.023 514.789 743.848 514.665 743.726L512.939 742.054C512.795 741.914 512.745 741.703 512.811 741.514C512.875 741.325 513.038 741.186 513.236 741.155L515.611 740.811C515.791 740.792 515.95 740.682 516.031 740.52L517.078 738.374C517.103 738.326 517.135 738.282 517.174 738.245L517.217 738.212C517.239 738.187 517.265 738.166 517.293 738.149L517.346 738.13L517.427 738.097H517.628C517.808 738.115 517.966 738.223 518.049 738.384L519.109 740.52C519.185 740.676 519.334 740.784 519.506 740.811L521.881 741.155C522.081 741.184 522.249 741.323 522.316 741.514C522.378 741.705 522.324 741.916 522.177 742.054L520.39 743.746Z" fill="#FAAF38"/>
<path d="M531.859 743.746C531.735 743.865 531.678 744.039 531.707 744.209L532.131 746.56C532.167 746.76 532.083 746.961 531.916 747.076C531.753 747.196 531.535 747.21 531.357 747.115L529.241 746.011C529.167 745.972 529.085 745.95 529.002 745.948H528.872C528.827 745.955 528.783 745.969 528.743 745.991L526.626 747.1C526.521 747.153 526.403 747.172 526.287 747.153C526.004 747.099 525.815 746.83 525.861 746.545L526.287 744.194C526.315 744.023 526.258 743.848 526.134 743.726L524.409 742.054C524.264 741.914 524.214 741.703 524.28 741.514C524.344 741.325 524.508 741.186 524.705 741.155L527.08 740.811C527.261 740.792 527.419 740.682 527.501 740.52L528.547 738.374C528.572 738.326 528.604 738.282 528.643 738.245L528.686 738.212C528.708 738.187 528.734 738.166 528.763 738.149L528.815 738.13L528.896 738.097H529.097C529.277 738.115 529.435 738.223 529.518 738.384L530.578 740.52C530.655 740.676 530.803 740.784 530.975 740.811L533.35 741.155C533.551 741.184 533.718 741.323 533.785 741.514C533.847 741.705 533.793 741.916 533.646 742.054L531.859 743.746Z" fill="#FAAF38"/>
<path d="M543.328 743.746C543.204 743.865 543.148 744.039 543.176 744.209L543.601 746.56C543.636 746.76 543.552 746.961 543.386 747.076C543.222 747.196 543.005 747.21 542.826 747.115L540.71 746.011C540.636 745.972 540.555 745.95 540.471 745.948H540.341C540.296 745.955 540.252 745.969 540.212 745.991L538.095 747.1C537.991 747.153 537.872 747.172 537.756 747.153C537.473 747.099 537.284 746.83 537.331 746.545L537.756 744.194C537.784 744.023 537.727 743.848 537.604 743.726L535.878 742.054C535.734 741.914 535.683 741.703 535.749 741.514C535.813 741.325 535.977 741.186 536.174 741.155L538.549 740.811C538.73 740.792 538.889 740.682 538.97 740.52L540.016 738.374C540.041 738.326 540.073 738.282 540.112 738.245L540.155 738.212C540.177 738.187 540.203 738.166 540.232 738.149L540.284 738.13L540.365 738.097H540.566C540.746 738.115 540.904 738.223 540.987 738.384L542.047 740.52C542.124 740.676 542.273 740.784 542.444 740.811L544.819 741.155C545.02 741.184 545.188 741.323 545.254 741.514C545.317 741.705 545.263 741.916 545.116 742.054L543.328 743.746Z" fill="#FAAF38"/>
<path d="M554.798 743.746C554.674 743.865 554.617 744.039 554.645 744.209L555.07 746.56C555.106 746.76 555.022 746.961 554.855 747.076C554.692 747.196 554.474 747.21 554.296 747.115L552.18 746.011C552.106 745.972 552.024 745.95 551.941 745.948H551.811C551.766 745.955 551.722 745.969 551.682 745.991L549.565 747.1C549.46 747.153 549.342 747.172 549.226 747.153C548.943 747.099 548.754 746.83 548.8 746.545L549.226 744.194C549.254 744.023 549.197 743.848 549.073 743.726L547.348 742.054C547.203 741.914 547.153 741.703 547.219 741.514C547.283 741.325 547.447 741.186 547.644 741.155L550.019 740.811C550.2 740.792 550.358 740.682 550.44 740.52L551.486 738.374C551.511 738.326 551.543 738.282 551.582 738.245L551.625 738.212C551.647 738.187 551.673 738.166 551.702 738.149L551.754 738.13L551.835 738.097H552.036C552.216 738.115 552.374 738.223 552.457 738.384L553.517 740.52C553.594 740.676 553.742 740.784 553.914 740.811L556.289 741.155C556.49 741.184 556.657 741.323 556.724 741.514C556.786 741.705 556.732 741.916 556.585 742.054L554.798 743.746Z" fill="#FAAF38"/>
<path d="M566.267 743.746C566.143 743.865 566.087 744.039 566.115 744.209L566.54 746.56C566.575 746.76 566.491 746.961 566.325 747.076C566.161 747.196 565.944 747.21 565.765 747.115L563.649 746.011C563.575 745.972 563.493 745.95 563.41 745.948H563.28C563.235 745.955 563.191 745.969 563.151 745.991L561.034 747.1C560.93 747.153 560.811 747.172 560.695 747.153C560.412 747.099 560.223 746.83 560.27 746.545L560.695 744.194C560.723 744.023 560.666 743.848 560.542 743.726L558.817 742.054C558.673 741.914 558.622 741.703 558.688 741.514C558.752 741.325 558.916 741.186 559.113 741.155L561.488 740.811C561.669 740.792 561.828 740.682 561.909 740.52L562.955 738.374C562.98 738.326 563.012 738.282 563.051 738.245L563.094 738.212C563.116 738.187 563.142 738.166 563.171 738.149L563.223 738.13L563.304 738.097H563.505C563.685 738.115 563.843 738.223 563.926 738.384L564.986 740.52C565.063 740.676 565.211 740.784 565.383 740.811L567.758 741.155C567.959 741.184 568.127 741.323 568.193 741.514C568.256 741.705 568.202 741.916 568.054 742.054L566.267 743.746Z" fill="#D8DAE1"/>
<g clip-path="url(#clip5_8_2)">
<rect x="487.741" y="661.204" width="106.092" height="16.0571" rx="8.02857" fill="#C0D4E3"/>
</g>
<g clip-path="url(#clip6_8_2)">
<rect x="442.322" y="718.551" width="196.127" height="6.88163" rx="3.44082" fill="#E1E8F1"/>
<rect x="417.777" y="703.641" width="245.445" height="6.88163" rx="3.44082" fill="#E1E8F1"/>
<rect x="434.14" y="688.731" width="212.757" height="6.88163" rx="3.44082" fill="#E1E8F1"/>
</g>
</g>
<defs>
<filter id="filter0_d_8_2" x="29" y="192" width="742.2" height="431" filterUnits="userSpaceOnUse" color-interpolation-filters="sRGB">
<feFlood flood-opacity="0" result="BackgroundImageFix"/>
<feColorMatrix in="SourceAlpha" type="matrix" values="0 0 0 0 0 0 0 0 0 0 0 0 0 0 0 0 0 0 127 0" result="hardAlpha"/>
<feOffset dy="10"/>
<feGaussianBlur stdDeviation="10"/>
<feColorMatrix type="matrix" values="0 0 0 0 0.576471 0 0 0 0 0.592157 0 0 0 0 0.678431 0 0 0 0.1 0"/>
<feBlend mode="normal" in2="BackgroundImageFix" result="effect1_dropShadow_8_2"/>
<feBlend mode="normal" in="SourceGraphic" in2="effect1_dropShadow_8_2" result="shape"/>
</filter>
<filter id="filter1_d_8_2" x="126.275" y="398.138" width="158.218" height="67.1793" filterUnits="userSpaceOnUse" color-interpolation-filters="sRGB">
<feFlood flood-opacity="0" result="BackgroundImageFix"/>
<feColorMatrix in="SourceAlpha" type="matrix" values="0 0 0 0 0 0 0 0 0 0 0 0 0 0 0 0 0 0 127 0" result="hardAlpha"/>
<feOffset dy="4.8625"/>
<feGaussianBlur stdDeviation="4.8625"/>
<feColorMatrix type="matrix" values="0 0 0 0 0.576471 0 0 0 0 0.592157 0 0 0 0 0.678431 0 0 0 0.3 0"/>
<feBlend mode="normal" in2="BackgroundImageFix" result="effect1_dropShadow_8_2"/>
<feBlend mode="normal" in="SourceGraphic" in2="effect1_dropShadow_8_2" result="shape"/>
</filter>
<filter id="filter2_d_8_2" x="136" y="403.013" width="138.62" height="57.4412" filterUnits="userSpaceOnUse" color-interpolation-filters="sRGB">
<feFlood flood-opacity="0" result="BackgroundImageFix"/>
<feColorMatrix in="SourceAlpha" type="matrix" values="0 0 0 0 0 0 0 0 0 0 0 0 0 0 0 0 0 0 127 0" result="hardAlpha"/>
<feMorphology radius="19.45" operator="erode" in="SourceAlpha" result="effect1_dropShadow_8_2"/>
<feOffset dy="9.725"/>
<feGaussianBlur stdDeviation="9.725"/>
<feColorMatrix type="matrix" values="0 0 0 0 0.858824 0 0 0 0 0.890196 0 0 0 0 0.929412 0 0 0 0.4 0"/>
<feBlend mode="normal" in2="BackgroundImageFix" result="effect1_dropShadow_8_2"/>
<feBlend mode="normal" in="SourceGraphic" in2="effect1_dropShadow_8_2" result="shape"/>
</filter>
<filter id="filter3_d_8_2" x="498.271" y="393.138" width="160.278" height="89.4446" filterUnits="userSpaceOnUse" color-interpolation-filters="sRGB">
<feFlood flood-opacity="0" result="BackgroundImageFix"/>
<feColorMatrix in="SourceAlpha" type="matrix" values="0 0 0 0 0 0 0 0 0 0 0 0 0 0 0 0 0 0 127 0" result="hardAlpha"/>
<feOffset dy="4.8625"/>
<feGaussianBlur stdDeviation="4.8625"/>
<feColorMatrix type="matrix" values="0 0 0 0 0.576471 0 0 0 0 0.592157 0 0 0 0 0.678431 0 0 0 0.3 0"/>
<feBlend mode="normal" in2="BackgroundImageFix" result="effect1_dropShadow_8_2"/>
<feBlend mode="normal" in="SourceGraphic" in2="effect1_dropShadow_8_2" result="shape"/>
</filter>
<filter id="filter4_d_8_2" x="507.996" y="398" width="140.683" height="79.6977" filterUnits="userSpaceOnUse" color-interpolation-filters="sRGB">
<feFlood flood-opacity="0" result="BackgroundImageFix"/>
<feColorMatrix in="SourceAlpha" type="matrix" values="0 0 0 0 0 0 0 0 0 0 0 0 0 0 0 0 0 0 127 0" result="hardAlpha"/>
<feMorphology radius="19.45" operator="erode" in="SourceAlpha" result="effect1_dropShadow_8_2"/>
<feOffset dy="9.725"/>
<feGaussianBlur stdDeviation="9.725"/>
<feColorMatrix type="matrix" values="0 0 0 0 0.858824 0 0 0 0 0.890196 0 0 0 0 0.929412 0 0 0 0.4 0"/>
<feBlend mode="normal" in2="BackgroundImageFix" result="effect1_dropShadow_8_2"/>
<feBlend mode="normal" in="SourceGraphic" in2="effect1_dropShadow_8_2" result="shape"/>
</filter>
<filter id="filter5_d_8_2" x="202.777" y="510.323" width="140.824" height="79.7365" filterUnits="userSpaceOnUse" color-interpolation-filters="sRGB">
<feFlood flood-opacity="0" result="BackgroundImageFix"/>
<feColorMatrix in="SourceAlpha" type="matrix" values="0 0 0 0 0 0 0 0 0 0 0 0 0 0 0 0 0 0 127 0" result="hardAlpha"/>
<feMorphology radius="19.45" operator="erode" in="SourceAlpha" result="effect1_dropShadow_8_2"/>
<feOffset dy="9.725"/>
<feGaussianBlur stdDeviation="9.725"/>
<feColorMatrix type="matrix" values="0 0 0 0 0.858824 0 0 0 0 0.890196 0 0 0 0 0.929412 0 0 0 0.4 0"/>
<feBlend mode="normal" in2="BackgroundImageFix" result="effect1_dropShadow_8_2"/>
<feBlend mode="normal" in="SourceGraphic" in2="effect1_dropShadow_8_2" result="shape"/>
</filter>
<filter id="filter6_d_8_2" x="202.777" y="510.362" width="140.683" height="79.6977" filterUnits="userSpaceOnUse" color-interpolation-filters="sRGB">
<feFlood flood-opacity="0" result="BackgroundImageFix"/>
<feColorMatrix in="SourceAlpha" type="matrix" values="0 0 0 0 0 0 0 0 0 0 0 0 0 0 0 0 0 0 127 0" result="hardAlpha"/>
<feMorphology radius="19.45" operator="erode" in="SourceAlpha" result="effect1_dropShadow_8_2"/>
<feOffset dy="9.725"/>
<feGaussianBlur stdDeviation="9.725"/>
<feColorMatrix type="matrix" values="0 0 0 0 0.858824 0 0 0 0 0.890196 0 0 0 0 0.929412 0 0 0 0.4 0"/>
<feBlend mode="normal" in2="BackgroundImageFix" result="effect1_dropShadow_8_2"/>
<feBlend mode="normal" in="SourceGraphic" in2="effect1_dropShadow_8_2" result="shape"/>
</filter>
<filter id="filter7_d_8_2" x="322.275" y="362.976" width="155.6" height="55.45" filterUnits="userSpaceOnUse" color-interpolation-filters="sRGB">
<feFlood flood-opacity="0" result="BackgroundImageFix"/>
<feColorMatrix in="SourceAlpha" type="matrix" values="0 0 0 0 0 0 0 0 0 0 0 0 0 0 0 0 0 0 127 0" result="hardAlpha"/>
<feOffset dy="4.8625"/>
<feGaussianBlur stdDeviation="4.8625"/>
<feColorMatrix type="matrix" values="0 0 0 0 0.576471 0 0 0 0 0.592157 0 0 0 0 0.678431 0 0 0 0.3 0"/>
<feBlend mode="normal" in2="BackgroundImageFix" result="effect1_dropShadow_8_2"/>
<feBlend mode="normal" in="SourceGraphic" in2="effect1_dropShadow_8_2" result="shape"/>
</filter>
<filter id="filter8_d_8_2" x="332" y="367.839" width="136" height="45.725" filterUnits="userSpaceOnUse" color-interpolation-filters="sRGB">
<feFlood flood-opacity="0" result="BackgroundImageFix"/>
<feColorMatrix in="SourceAlpha" type="matrix" values="0 0 0 0 0 0 0 0 0 0 0 0 0 0 0 0 0 0 127 0" result="hardAlpha"/>
<feMorphology radius="19.45" operator="erode" in="SourceAlpha" result="effect1_dropShadow_8_2"/>
<feOffset dy="9.725"/>
<feGaussianBlur stdDeviation="9.725"/>
<feColorMatrix type="matrix" values="0 0 0 0 0.858824 0 0 0 0 0.890196 0 0 0 0 0.929412 0 0 0 0.4 0"/>
<feBlend mode="normal" in2="BackgroundImageFix" result="effect1_dropShadow_8_2"/>
<feBlend mode="normal" in="SourceGraphic" in2="effect1_dropShadow_8_2" result="shape"/>
</filter>
<filter id="filter9_d_8_2" x="84.5083" y="242.762" width="43.998" height="49.8289" filterUnits="userSpaceOnUse" color-interpolation-filters="sRGB">
<feFlood flood-opacity="0" result="BackgroundImageFix"/>
<feColorMatrix in="SourceAlpha" type="matrix" values="0 0 0 0 0 0 0 0 0 0 0 0 0 0 0 0 0 0 127 0" result="hardAlpha"/>
<feOffset dy="2.05078"/>
<feGaussianBlur stdDeviation="3.07616"/>
<feColorMatrix type="matrix" values="0 0 0 0 0 0 0 0 0 0 0 0 0 0 0 0 0 0 0.4 0"/>
<feBlend mode="normal" in2="BackgroundImageFix" result="effect1_dropShadow_8_2"/>
<feBlend mode="normal" in="SourceGraphic" in2="effect1_dropShadow_8_2" result="shape"/>
</filter>
<filter id="filter10_d_8_2" x="111.97" y="283.812" width="179.812" height="50.6093" filterUnits="userSpaceOnUse" color-interpolation-filters="sRGB">
<feFlood flood-opacity="0" result="BackgroundImageFix"/>
<feColorMatrix in="SourceAlpha" type="matrix" values="0 0 0 0 0 0 0 0 0 0 0 0 0 0 0 0 0 0 127 0" result="hardAlpha"/>
<feOffset dy="4.10155"/>
<feGaussianBlur stdDeviation="4.10155"/>
<feColorMatrix type="matrix" values="0 0 0 0 0 0 0 0 0 0 0 0 0 0 0 0 0 0 0.12 0"/>
<feBlend mode="normal" in2="BackgroundImageFix" result="effect1_dropShadow_8_2"/>
<feBlend mode="normal" in="SourceGraphic" in2="effect1_dropShadow_8_2" result="shape"/>
</filter>
<filter id="filter11_d_8_2" x="526.09" y="449.933" width="46.0558" height="52.0614" filterUnits="userSpaceOnUse" color-interpolation-filters="sRGB">
<feFlood flood-opacity="0" result="BackgroundImageFix"/>
<feColorMatrix in="SourceAlpha" type="matrix" values="0 0 0 0 0 0 0 0 0 0 0 0 0 0 0 0 0 0 127 0" result="hardAlpha"/>
<feOffset dy="2.25714"/>
<feGaussianBlur stdDeviation="3.38571"/>
<feColorMatrix type="matrix" values="0 0 0 0 0 0 0 0 0 0 0 0 0 0 0 0 0 0 0.4 0"/>
<feBlend mode="normal" in2="BackgroundImageFix" result="effect1_dropShadow_8_2"/>
<feBlend mode="normal" in="SourceGraphic" in2="effect1_dropShadow_8_2" result="shape"/>
</filter>
<filter id="filter12_d_8_2" x="552.746" y="491.546" width="158.114" height="53.0857" filterUnits="userSpaceOnUse" color-interpolation-filters="sRGB">
<feFlood flood-opacity="0" result="BackgroundImageFix"/>
<feColorMatrix in="SourceAlpha" type="matrix" values="0 0 0 0 0 0 0 0 0 0 0 0 0 0 0 0 0 0 127 0" result="hardAlpha"/>
<feOffset dy="4.51429"/>
<feGaussianBlur stdDeviation="4.51429"/>
<feColorMatrix type="matrix" values="0 0 0 0 0 0 0 0 0 0 0 0 0 0 0 0 0 0 0.12 0"/>
<feBlend mode="normal" in2="BackgroundImageFix" result="effect1_dropShadow_8_2"/>
<feBlend mode="normal" in="SourceGraphic" in2="effect1_dropShadow_8_2" result="shape"/>
</filter>
<filter id="filter13_d_8_2" x="444.275" y="540.138" width="160.274" height="89.4615" filterUnits="userSpaceOnUse" color-interpolation-filters="sRGB">
<feFlood flood-opacity="0" result="BackgroundImageFix"/>
<feColorMatrix in="SourceAlpha" type="matrix" values="0 0 0 0 0 0 0 0 0 0 0 0 0 0 0 0 0 0 127 0" result="hardAlpha"/>
<feOffset dy="4.8625"/>
<feGaussianBlur stdDeviation="4.8625"/>
<feColorMatrix type="matrix" values="0 0 0 0 0.576471 0 0 0 0 0.592157 0 0 0 0 0.678431 0 0 0 0.3 0"/>
<feBlend mode="normal" in2="BackgroundImageFix" result="effect1_dropShadow_8_2"/>
<feBlend mode="normal" in="SourceGraphic" in2="effect1_dropShadow_8_2" result="shape"/>
</filter>
<filter id="filter14_d_8_2" x="454" y="545.039" width="140.683" height="79.6977" filterUnits="userSpaceOnUse" color-interpolation-filters="sRGB">
<feFlood flood-opacity="0" result="BackgroundImageFix"/>
<feColorMatrix in="SourceAlpha" type="matrix" values="0 0 0 0 0 0 0 0 0 0 0 0 0 0 0 0 0 0 127 0" result="hardAlpha"/>
<feMorphology radius="19.45" operator="erode" in="SourceAlpha" result="effect1_dropShadow_8_2"/>
<feOffset dy="9.725"/>
<feGaussianBlur stdDeviation="9.725"/>
<feColorMatrix type="matrix" values="0 0 0 0 0.858824 0 0 0 0 0.890196 0 0 0 0 0.929412 0 0 0 0.4 0"/>
<feBlend mode="normal" in2="BackgroundImageFix" result="effect1_dropShadow_8_2"/>
<feBlend mode="normal" in="SourceGraphic" in2="effect1_dropShadow_8_2" result="shape"/>
</filter>
<filter id="filter15_d_8_2" x="508" y="78" width="212" height="292.897" filterUnits="userSpaceOnUse" color-interpolation-filters="sRGB">
<feFlood flood-opacity="0" result="BackgroundImageFix"/>
<feColorMatrix in="SourceAlpha" type="matrix" values="0 0 0 0 0 0 0 0 0 0 0 0 0 0 0 0 0 0 127 0" result="hardAlpha"/>
<feOffset dy="10"/>
<feGaussianBlur stdDeviation="10"/>
<feColorMatrix type="matrix" values="0 0 0 0 0.576471 0 0 0 0 0.592157 0 0 0 0 0.678431 0 0 0 0.3 0"/>
<feBlend mode="normal" in2="BackgroundImageFix" result="effect1_dropShadow_8_2"/>
<feBlend mode="normal" in="SourceGraphic" in2="effect1_dropShadow_8_2" result="shape"/>
</filter>
<filter id="filter16_d_8_2" x="546.586" y="106.586" width="20" height="31.0748" filterUnits="userSpaceOnUse" color-interpolation-filters="sRGB">
<feFlood flood-opacity="0" result="BackgroundImageFix"/>
<feColorMatrix in="SourceAlpha" type="matrix" values="0 0 0 0 0 0 0 0 0 0 0 0 0 0 0 0 0 0 127 0" result="hardAlpha"/>
<feMorphology radius="22.1495" operator="erode" in="SourceAlpha" result="effect1_dropShadow_8_2"/>
<feOffset dy="11.0748"/>
<feGaussianBlur stdDeviation="11.0748"/>
<feColorMatrix type="matrix" values="0 0 0 0 0.858824 0 0 0 0 0.890196 0 0 0 0 0.929412 0 0 0 0.4 0"/>
<feBlend mode="normal" in2="BackgroundImageFix" result="effect1_dropShadow_8_2"/>
<feBlend mode="normal" in="SourceGraphic" in2="effect1_dropShadow_8_2" result="shape"/>
</filter>
<filter id="filter17_d_8_2" x="94" y="464" width="271" height="338" filterUnits="userSpaceOnUse" color-interpolation-filters="sRGB">
<feFlood flood-opacity="0" result="BackgroundImageFix"/>
<feColorMatrix in="SourceAlpha" type="matrix" values="0 0 0 0 0 0 0 0 0 0 0 0 0 0 0 0 0 0 127 0" result="hardAlpha"/>
<feOffset dy="10"/>
<feGaussianBlur stdDeviation="10"/>
<feColorMatrix type="matrix" values="0 0 0 0 0.576471 0 0 0 0 0.592157 0 0 0 0 0.678431 0 0 0 0.1 0"/>
<feBlend mode="normal" in2="BackgroundImageFix" result="effect1_dropShadow_8_2"/>
<feBlend mode="normal" in="SourceGraphic" in2="effect1_dropShadow_8_2" result="shape"/>
</filter>
<filter id="filter18_d_8_2" x="563" y="39" width="190" height="102" filterUnits="userSpaceOnUse" color-interpolation-filters="sRGB">
<feFlood flood-opacity="0" result="BackgroundImageFix"/>
<feColorMatrix in="SourceAlpha" type="matrix" values="0 0 0 0 0 0 0 0 0 0 0 0 0 0 0 0 0 0 127 0" result="hardAlpha"/>
<feOffset dy="10"/>
<feGaussianBlur stdDeviation="10"/>
<feColorMatrix type="matrix" values="0 0 0 0 0.576471 0 0 0 0 0.592157 0 0 0 0 0.678431 0 0 0 0.3 0"/>
<feBlend mode="normal" in2="BackgroundImageFix" result="effect1_dropShadow_8_2"/>
<feBlend mode="normal" in="SourceGraphic" in2="effect1_dropShadow_8_2" result="shape"/>
</filter>
<filter id="filter19_d_8_2" x="77" y="-2" width="314.881" height="216.051" filterUnits="userSpaceOnUse" color-interpolation-filters="sRGB">
<feFlood flood-opacity="0" result="BackgroundImageFix"/>
<feColorMatrix in="SourceAlpha" type="matrix" values="0 0 0 0 0 0 0 0 0 0 0 0 0 0 0 0 0 0 127 0" result="hardAlpha"/>
<feOffset dy="10"/>
<feGaussianBlur stdDeviation="10"/>
<feColorMatrix type="matrix" values="0 0 0 0 0.576471 0 0 0 0 0.592157 0 0 0 0 0.678431 0 0 0 0.1 0"/>
<feBlend mode="normal" in2="BackgroundImageFix" result="effect1_dropShadow_8_2"/>
<feBlend mode="normal" in="SourceGraphic" in2="effect1_dropShadow_8_2" result="shape"/>
</filter>
<filter id="filter20_d_8_2" x="275" y="97" width="252" height="153" filterUnits="userSpaceOnUse" color-interpolation-filters="sRGB">
<feFlood flood-opacity="0" result="BackgroundImageFix"/>
<feColorMatrix in="SourceAlpha" type="matrix" values="0 0 0 0 0 0 0 0 0 0 0 0 0 0 0 0 0 0 127 0" result="hardAlpha"/>
<feOffset dy="10"/>
<feGaussianBlur stdDeviation="10"/>
<feColorMatrix type="matrix" values="0 0 0 0 0.576471 0 0 0 0 0.592157 0 0 0 0 0.678431 0 0 0 0.3 0"/>
<feBlend mode="normal" in2="BackgroundImageFix" result="effect1_dropShadow_8_2"/>
<feBlend mode="normal" in="SourceGraphic" in2="effect1_dropShadow_8_2" result="shape"/>
</filter>
<filter id="filter21_d_8_2" x="379" y="633" width="323" height="163.576" filterUnits="userSpaceOnUse" color-interpolation-filters="sRGB">
<feFlood flood-opacity="0" result="BackgroundImageFix"/>
<feColorMatrix in="SourceAlpha" type="matrix" values="0 0 0 0 0 0 0 0 0 0 0 0 0 0 0 0 0 0 127 0" result="hardAlpha"/>
<feOffset dy="10"/>
<feGaussianBlur stdDeviation="10"/>
<feColorMatrix type="matrix" values="0 0 0 0 0.576471 0 0 0 0 0.592157 0 0 0 0 0.678431 0 0 0 0.1 0"/>
<feBlend mode="normal" in2="BackgroundImageFix" result="effect1_dropShadow_8_2"/>
<feBlend mode="normal" in="SourceGraphic" in2="effect1_dropShadow_8_2" result="shape"/>
</filter>
<clipPath id="clip0_8_2">
<rect width="800" height="800" fill="white"/>
</clipPath>
<clipPath id="clip1_8_2">
<rect x="50" y="203" width="700.2" height="389" rx="10" fill="white"/>
</clipPath>
<clipPath id="clip2_8_2">
<rect width="134.828" height="22.2759" fill="white" transform="translate(546.586 184.207)"/>
</clipPath>
<clipPath id="clip3_8_2">
<rect width="70.3448" height="7.03448" fill="white" transform="translate(546.586 257.552)"/>
</clipPath>
<clipPath id="clip4_8_2">
<rect width="169.304" height="21.4452" fill="white" transform="translate(316 176.555)"/>
</clipPath>
<clipPath id="clip5_8_2">
<rect width="106.092" height="16.0571" fill="white" transform="translate(487.741 661.204)"/>
</clipPath>
<clipPath id="clip6_8_2">
<rect width="245.445" height="36.702" fill="white" transform="translate(417.777 688.731)"/>
</clipPath>
</defs>
</svg>
