<svg width="833" height="738" viewBox="0 0 833 738" fill="none" xmlns="http://www.w3.org/2000/svg">
<g clip-path="url(#clip0_17_607)">
<rect width="833" height="738" fill="#3E4265"/>
<g opacity="0.5" filter="url(#filter0_f_17_607)">
<path d="M489.004 330L922 251.835V-87H649.332L434.833 -23.014L636.971 126.408L489.004 330Z" fill="url(#paint0_radial_17_607)"/>
<path d="M489.004 330L922 251.835V-87H649.332L434.833 -23.014L636.971 126.408L489.004 330Z" stroke="black"/>
<path d="M489.004 330L922 251.835V-87H649.332L434.833 -23.014L636.971 126.408L489.004 330Z" stroke="url(#paint1_linear_17_607)"/>
</g>
<g opacity="0.5" filter="url(#filter1_f_17_607)">
<path d="M-54.5942 718.329L220.422 703.05L259.5 309.33L6.52051 287L-74.574 388.074L-235 484.741L-74.574 602.269L-54.5942 718.329Z" fill="url(#paint2_radial_17_607)"/>
<path d="M-54.5942 718.329L220.422 703.05L259.5 309.33L6.5205 287L-74.574 388.074L-235 484.741L-74.574 602.269L-54.5942 718.329Z" stroke="black"/>
<path d="M-54.5942 718.329L220.422 703.05L259.5 309.33L6.5205 287L-74.574 388.074L-235 484.741L-74.574 602.269L-54.5942 718.329Z" stroke="url(#paint3_linear_17_607)"/>
</g>
</g>
<defs>
<filter id="filter0_f_17_607" x="183.731" y="-337.5" width="988.769" height="918.213" filterUnits="userSpaceOnUse" color-interpolation-filters="sRGB">
<feFlood flood-opacity="0" result="BackgroundImageFix"/>
<feBlend mode="normal" in="SourceGraphic" in2="BackgroundImageFix" result="shape"/>
<feGaussianBlur stdDeviation="125" result="effect1_foregroundBlur_17_607"/>
</filter>
<filter id="filter1_f_17_607" x="-485.901" y="36.4784" width="995.949" height="932.374" filterUnits="userSpaceOnUse" color-interpolation-filters="sRGB">
<feFlood flood-opacity="0" result="BackgroundImageFix"/>
<feBlend mode="normal" in="SourceGraphic" in2="BackgroundImageFix" result="shape"/>
<feGaussianBlur stdDeviation="125" result="effect1_foregroundBlur_17_607"/>
</filter>
<radialGradient id="paint0_radial_17_607" cx="0" cy="0" r="1" gradientUnits="userSpaceOnUse" gradientTransform="translate(528.601 327.77) rotate(-52.9096) scale(478.201 504.351)">
<stop stop-color="#0099FF"/>
<stop offset="0.609754" stop-color="#A033FF"/>
<stop offset="0.934823" stop-color="#FF5280"/>
<stop offset="1" stop-color="#FF7061"/>
</radialGradient>
<linearGradient id="paint1_linear_17_607" x1="744.402" y1="-259.326" x2="744.402" y2="330" gradientUnits="userSpaceOnUse">
<stop stop-color="white"/>
<stop offset="1" stop-color="white" stop-opacity="0"/>
</linearGradient>
<radialGradient id="paint2_radial_17_607" cx="0" cy="0" r="1" gradientUnits="userSpaceOnUse" gradientTransform="translate(-139.822 716.021) rotate(-53.4276) scale(491.295 515.422)">
<stop stop-color="#0099FF"/>
<stop offset="0.609754" stop-color="#A033FF"/>
<stop offset="0.934823" stop-color="#FF5280"/>
<stop offset="1" stop-color="#FF7061"/>
</radialGradient>
<linearGradient id="paint3_linear_17_607" x1="12.25" y1="290.526" x2="12.25" y2="766.809" gradientUnits="userSpaceOnUse">
<stop stop-color="white"/>
<stop offset="1" stop-color="white" stop-opacity="0"/>
</linearGradient>
<clipPath id="clip0_17_607">
<rect width="833" height="738" fill="white"/>
</clipPath>
</defs>
</svg>
