<svg width="600" height="500" viewBox="0 0 600 500" fill="none" xmlns="http://www.w3.org/2000/svg">
<g clip-path="url(#clip0_288_1928)">
<path d="M345.298 65.2148H252.639V65.9031H345.298V65.2148Z" fill="url(#paint0_linear_288_1928)"/>
<path d="M299.198 19.769H298.51V111.349H299.198V19.769Z" fill="url(#paint1_linear_288_1928)"/>
<path d="M253.102 157.024H159.986V157.712H253.102V157.024Z" fill="url(#paint2_linear_288_1928)"/>
<path d="M207.002 110.66H206.313V203.847H207.002V110.66Z" fill="url(#paint3_linear_288_1928)"/>
<path d="M162.509 294.738H69.3926V295.426H162.509V294.738Z" fill="url(#paint4_linear_288_1928)"/>
<path d="M116.409 248.603H115.72V341.79H116.409V248.603Z" fill="url(#paint5_linear_288_1928)"/>
<g opacity="0.6">
<path fill-rule="evenodd" clip-rule="evenodd" d="M391.171 -27.0542H390.483V19.0978H345.071V-27.0542H344.383V19.0978H299.201V-27.0542H298.513V19.0978H253.101V-27.0542H252.413V19.0978H207.002V-27.0542H206.313V19.0978H160.902V-27.0542H160.214V19.0978H114.802V-27.0542H114.114V19.0978H68.7024V-27.0542H68.0143V19.0978H22.6026V-3.97819V-27.0542H21.9146V-3.97819V19.0978H-22.5797V19.7867H22.832V65.2498H-23.0384V65.9387H22.832V111.402H-23.0384V112.091H22.832V157.554H-23.0384V158.243H22.832V203.017H-23.0384V203.706H22.832V249.169H-23.0384V249.858H22.832V295.321H-23.0384V296.01H22.832V341.473H-23.0384V342.162H22.832V396.793H23.52V341.932H68.9317V396.793H69.6198V341.932H115.031V396.793H115.72V341.932H161.131V396.793H161.819V341.932H207.231V396.793H207.919V341.932H253.331V396.793H254.019V341.932H299.43V396.793H300.118V341.932H345.53V396.793H346.218V341.932H391.63V396.793H392.318V341.932H437.73V341.243H392.318V295.78H437.73V295.091H392.318V249.628H437.73V248.939H392.318V203.247H437.73V202.558H392.318V157.783H437.73V157.095H392.318V111.861H437.73V111.172H392.318V65.7091H437.73V65.0202H392.318V19.7867H437.73V19.0978H392.318V-27.0542H391.171ZM390.483 341.014H345.071V295.551H390.483V341.014ZM344.383 341.014H299.201V295.551H344.613V341.014H344.383ZM298.513 341.014H253.101V295.551H298.513V341.014ZM252.643 341.014H207.231V295.551H252.643V341.014ZM206.543 341.014H161.131V295.551H206.543V341.014ZM160.672 341.014H115.261V295.551H160.672V341.014ZM114.573 341.014H69.1611V295.551H114.573V341.014ZM68.7024 341.014H23.2907V295.551H68.7024V341.014ZM23.2907 249.399V294.862H68.7024V249.399H23.2907ZM69.3904 249.399V294.862H114.802V249.399H69.3904ZM115.261 249.399V294.862H160.672V249.399H115.261ZM161.361 249.399V294.862H206.772V249.399H161.361ZM207.231 249.399V294.862H252.643V249.399H207.231ZM253.101 249.399V294.862H298.513V249.399H253.101ZM299.201 249.399V294.862H344.613V249.399H299.201ZM345.071 249.399V294.862H390.483V249.399H345.071ZM390.483 248.71H345.071V203.247H390.483V248.71ZM344.383 248.71H299.201V203.247H344.613V248.71H344.383ZM298.513 248.71H253.101V203.247H298.513V248.71ZM252.643 248.71H207.231V203.247H252.643V248.71ZM206.543 248.71H161.131V203.247H206.543V248.71ZM160.672 248.71H115.261V203.247H160.672V248.71ZM114.573 248.71H69.1611V203.247H114.573V248.71ZM68.7024 248.71H23.2907V203.247H68.7024V248.71ZM23.2907 158.013V202.787H68.7024V158.013H23.2907ZM69.3904 158.013V202.787H114.802V158.013H69.3904ZM115.261 158.013V202.787H160.672V158.013H115.261ZM161.361 158.013V202.787H206.772V158.013H161.361ZM207.231 158.013V202.787H252.643V158.013H207.231ZM253.101 158.013V202.787H298.513V158.013H253.101ZM299.201 158.013V202.787H344.613V158.013H299.201ZM345.071 158.013V202.787H390.483V158.013H345.071ZM390.483 157.324H345.071V111.861H390.483V157.324ZM344.383 157.324H299.201V111.861H344.613V157.324H344.383ZM298.513 157.324H253.101V111.861H298.513V157.324ZM252.643 157.324H207.231V111.861H252.643V157.324ZM206.543 157.324H161.131V111.861H206.543V157.324ZM160.672 157.324H115.261V111.861H160.672V157.324ZM114.573 157.324H69.1611V111.861H114.573V157.324ZM68.7024 157.324H23.2907V111.861H68.7024V157.324ZM23.2907 65.7091V111.172H68.7024V65.7091H23.2907ZM69.3904 65.7091V111.172H114.802V65.7091H69.3904ZM115.261 65.7091V111.172H160.672V65.7091H115.261ZM161.361 65.7091V111.172H206.772V65.7091H161.361ZM207.231 65.7091V111.172H252.643V65.7091H207.231ZM253.101 65.7091V111.172H298.513V65.7091H253.101ZM299.201 65.7091V111.172H344.613V65.7091H299.201ZM345.071 65.7091V111.172H390.483V65.7091H345.071ZM390.483 65.0202H345.071V19.7867H390.483V65.0202ZM344.383 65.0202H299.201V19.7867H344.613V65.0202H344.383ZM298.513 65.0202H253.101V19.7867H298.513V65.0202ZM252.643 65.0202H207.231V19.7867H252.643V65.0202ZM206.543 65.0202H161.131V19.7867H206.543V65.0202ZM160.672 65.0202H115.261V19.7867H160.672V65.0202ZM114.573 65.0202H69.1611V19.7867H114.573V65.0202ZM68.7024 65.0202H23.2907V19.7867H68.7024V65.0202Z" fill="url(#paint6_linear_288_1928)"/>
<path fill-rule="evenodd" clip-rule="evenodd" d="M391.171 -27.0542H390.483V19.0978H345.071V-27.0542H344.383V19.0978H299.201V-27.0542H298.513V19.0978H253.101V-27.0542H252.413V19.0978H207.002V-27.0542H206.313V19.0978H160.902V-27.0542H160.214V19.0978H114.802V-27.0542H114.114V19.0978H68.7024V-27.0542H68.0143V19.0978H22.6026V-3.97819V-27.0542H21.9146V-3.97819V19.0978H-22.5797V19.7867H22.832V65.2498H-23.0384V65.9387H22.832V111.402H-23.0384V112.091H22.832V157.554H-23.0384V158.243H22.832V203.017H-23.0384V203.706H22.832V249.169H-23.0384V249.858H22.832V295.321H-23.0384V296.01H22.832V341.473H-23.0384V342.162H22.832V396.793H23.52V341.932H68.9317V396.793H69.6198V341.932H115.031V396.793H115.72V341.932H161.131V396.793H161.819V341.932H207.231V396.793H207.919V341.932H253.331V396.793H254.019V341.932H299.43V396.793H300.118V341.932H345.53V396.793H346.218V341.932H391.63V396.793H392.318V341.932H437.73V341.243H392.318V295.78H437.73V295.091H392.318V249.628H437.73V248.939H392.318V203.247H437.73V202.558H392.318V157.783H437.73V157.095H392.318V111.861H437.73V111.172H392.318V65.7091H437.73V65.0202H392.318V19.7867H437.73V19.0978H392.318V-27.0542H391.171ZM390.483 341.014H345.071V295.551H390.483V341.014ZM344.383 341.014H299.201V295.551H344.613V341.014H344.383ZM298.513 341.014H253.101V295.551H298.513V341.014ZM252.643 341.014H207.231V295.551H252.643V341.014ZM206.543 341.014H161.131V295.551H206.543V341.014ZM160.672 341.014H115.261V295.551H160.672V341.014ZM114.573 341.014H69.1611V295.551H114.573V341.014ZM68.7024 341.014H23.2907V295.551H68.7024V341.014ZM23.2907 249.399V294.862H68.7024V249.399H23.2907ZM69.3904 249.399V294.862H114.802V249.399H69.3904ZM115.261 249.399V294.862H160.672V249.399H115.261ZM161.361 249.399V294.862H206.772V249.399H161.361ZM207.231 249.399V294.862H252.643V249.399H207.231ZM253.101 249.399V294.862H298.513V249.399H253.101ZM299.201 249.399V294.862H344.613V249.399H299.201ZM345.071 249.399V294.862H390.483V249.399H345.071ZM390.483 248.71H345.071V203.247H390.483V248.71ZM344.383 248.71H299.201V203.247H344.613V248.71H344.383ZM298.513 248.71H253.101V203.247H298.513V248.71ZM252.643 248.71H207.231V203.247H252.643V248.71ZM206.543 248.71H161.131V203.247H206.543V248.71ZM160.672 248.71H115.261V203.247H160.672V248.71ZM114.573 248.71H69.1611V203.247H114.573V248.71ZM68.7024 248.71H23.2907V203.247H68.7024V248.71ZM23.2907 158.013V202.787H68.7024V158.013H23.2907ZM69.3904 158.013V202.787H114.802V158.013H69.3904ZM115.261 158.013V202.787H160.672V158.013H115.261ZM161.361 158.013V202.787H206.772V158.013H161.361ZM207.231 158.013V202.787H252.643V158.013H207.231ZM253.101 158.013V202.787H298.513V158.013H253.101ZM299.201 158.013V202.787H344.613V158.013H299.201ZM345.071 158.013V202.787H390.483V158.013H345.071ZM390.483 157.324H345.071V111.861H390.483V157.324ZM344.383 157.324H299.201V111.861H344.613V157.324H344.383ZM298.513 157.324H253.101V111.861H298.513V157.324ZM252.643 157.324H207.231V111.861H252.643V157.324ZM206.543 157.324H161.131V111.861H206.543V157.324ZM160.672 157.324H115.261V111.861H160.672V157.324ZM114.573 157.324H69.1611V111.861H114.573V157.324ZM68.7024 157.324H23.2907V111.861H68.7024V157.324ZM23.2907 65.7091V111.172H68.7024V65.7091H23.2907ZM69.3904 65.7091V111.172H114.802V65.7091H69.3904ZM115.261 65.7091V111.172H160.672V65.7091H115.261ZM161.361 65.7091V111.172H206.772V65.7091H161.361ZM207.231 65.7091V111.172H252.643V65.7091H207.231ZM253.101 65.7091V111.172H298.513V65.7091H253.101ZM299.201 65.7091V111.172H344.613V65.7091H299.201ZM345.071 65.7091V111.172H390.483V65.7091H345.071ZM390.483 65.0202H345.071V19.7867H390.483V65.0202ZM344.383 65.0202H299.201V19.7867H344.613V65.0202H344.383ZM298.513 65.0202H253.101V19.7867H298.513V65.0202ZM252.643 65.0202H207.231V19.7867H252.643V65.0202ZM206.543 65.0202H161.131V19.7867H206.543V65.0202ZM160.672 65.0202H115.261V19.7867H160.672V65.0202ZM114.573 65.0202H69.1611V19.7867H114.573V65.0202ZM68.7024 65.0202H23.2907V19.7867H68.7024V65.0202Z" fill="url(#paint7_linear_288_1928)" fill-opacity="0.2"/>
</g>
</g>
<defs>
<linearGradient id="paint0_linear_288_1928" x1="252.525" y1="65.8801" x2="343.21" y2="65.2611" gradientUnits="userSpaceOnUse">
<stop stop-color="#2C2E71"/>
<stop offset="0.52" stop-color="#745DA8"/>
<stop offset="1" stop-color="#2C2E71"/>
</linearGradient>
<linearGradient id="paint1_linear_288_1928" x1="298.533" y1="19.6772" x2="299.152" y2="109.306" gradientUnits="userSpaceOnUse">
<stop stop-color="#2C2E71"/>
<stop offset="0.52" stop-color="#745DA8"/>
<stop offset="1" stop-color="#2C2E71"/>
</linearGradient>
<linearGradient id="paint2_linear_288_1928" x1="159.986" y1="157.689" x2="251.267" y2="157.047" gradientUnits="userSpaceOnUse">
<stop stop-color="#2C2E71"/>
<stop offset="0.52" stop-color="#745DA8"/>
<stop offset="1" stop-color="#2C2E71"/>
</linearGradient>
<linearGradient id="paint3_linear_288_1928" x1="206.336" y1="110.66" x2="206.978" y2="202.033" gradientUnits="userSpaceOnUse">
<stop stop-color="#2C2E71"/>
<stop offset="0.52" stop-color="#745DA8"/>
<stop offset="1" stop-color="#2C2E71"/>
</linearGradient>
<linearGradient id="paint4_linear_288_1928" x1="69.3926" y1="295.403" x2="160.674" y2="294.761" gradientUnits="userSpaceOnUse">
<stop stop-color="#2C2E71"/>
<stop offset="0.52" stop-color="#745DA8"/>
<stop offset="1" stop-color="#2C2E71"/>
</linearGradient>
<linearGradient id="paint5_linear_288_1928" x1="115.743" y1="248.511" x2="116.385" y2="339.862" gradientUnits="userSpaceOnUse">
<stop stop-color="#2C2E71"/>
<stop offset="0.52" stop-color="#745DA8"/>
<stop offset="1" stop-color="#2C2E71"/>
</linearGradient>
<linearGradient id="paint6_linear_288_1928" x1="7.15911" y1="149.51" x2="397.637" y2="175.615" gradientUnits="userSpaceOnUse">
<stop stop-color="#2D348B" stop-opacity="0.2"/>
<stop offset="0.333333" stop-color="#2C368A"/>
<stop offset="0.666667" stop-color="#2D348B"/>
<stop offset="0.974035" stop-color="#2D348B" stop-opacity="0"/>
</linearGradient>
<linearGradient id="paint7_linear_288_1928" x1="404.97" y1="396.843" x2="1.50813" y2="351.565" gradientUnits="userSpaceOnUse">
<stop stop-color="#2C368A"/>
<stop offset="0.509478" stop-color="#2C368A" stop-opacity="0.5"/>
<stop offset="1" stop-color="#2C368A"/>
</linearGradient>
<clipPath id="clip0_288_1928">
<rect width="600" height="500" fill="white"/>
</clipPath>
</defs>
</svg>
