<svg width="700" height="600" viewBox="0 0 700 600" fill="none" xmlns="http://www.w3.org/2000/svg">
<g clip-path="url(#clip0_292_1928)">
<path d="M364.627 439.77L457.744 439.77L457.744 439.082L364.627 439.082L364.627 439.77Z" fill="url(#paint0_linear_292_1928)"/>
<path d="M410.728 486.133L411.417 486.133L411.417 392.947L410.728 392.947L410.728 486.133Z" fill="url(#paint1_linear_292_1928)"/>
<g opacity="0.6">
<path fill-rule="evenodd" clip-rule="evenodd" d="M226.558 623.848L227.246 623.848L227.246 577.696L272.658 577.696L272.658 623.848L273.346 623.848L273.346 577.696L318.529 577.696L318.529 623.848L319.217 623.848L319.217 577.696L364.628 577.696L364.628 623.848L365.316 623.848L365.316 577.696L410.728 577.696L410.728 623.848L411.416 623.848L411.416 577.696L456.828 577.696L456.828 623.848L457.516 623.848L457.516 577.696L502.927 577.696L502.927 623.848L503.616 623.848L503.616 577.696L549.027 577.696L549.027 623.848L549.715 623.848L549.715 577.696L595.127 577.696L595.127 600.772L595.127 623.848L595.815 623.848L595.815 600.772L595.815 577.696L640.309 577.696L640.309 577.007L594.898 577.007L594.898 531.544L640.768 531.544L640.768 530.855L594.898 530.855L594.898 485.392L640.768 485.392L640.768 484.703L594.898 484.703L594.898 439.24L640.768 439.24L640.768 438.551L594.898 438.551L594.898 393.776L640.768 393.776L640.768 393.088L594.898 393.088L594.898 347.624L640.768 347.624L640.768 346.936L594.898 346.936L594.898 301.472L640.768 301.472L640.768 300.784L594.898 300.784L594.898 255.32L640.768 255.32L640.768 254.632L594.898 254.631L594.898 200L594.21 200L594.21 254.861L548.798 254.861L548.798 200L548.11 200L548.11 254.861L502.698 254.861L502.698 200L502.01 200L502.01 254.861L456.598 254.861L456.598 200L455.91 200L455.91 254.861L410.499 254.861L410.499 200L409.811 200L409.811 254.861L364.399 254.861L364.399 200L363.711 200L363.711 254.861L318.299 254.861L318.299 200L317.611 200L317.611 254.861L272.199 254.861L272.2 200L271.511 200L271.511 254.861L226.1 254.861L226.1 200L225.412 200L225.412 254.861L180 254.861L180 255.55L225.412 255.55L225.412 301.013L180 301.013L180 301.702L225.412 301.702L225.412 347.165L180 347.165L180 347.854L225.412 347.854L225.412 393.547L180 393.547L180 394.236L225.412 394.236L225.412 439.01L180 439.01L180 439.699L225.412 439.699L225.412 484.932L180 484.932L180 485.621L225.412 485.621L225.412 531.084L180 531.084L180 531.773L225.412 531.773L225.412 577.007L180 577.007L180 577.696L225.412 577.696L225.412 623.848L226.558 623.848ZM227.247 255.78L272.658 255.78L272.658 301.243L227.247 301.243L227.247 255.78ZM273.346 255.78L318.529 255.78L318.529 301.243L273.117 301.243L273.117 255.78L273.346 255.78ZM319.217 255.78L364.628 255.78L364.628 301.243L319.217 301.243L319.217 255.78ZM365.087 255.78L410.499 255.78L410.499 301.243L365.087 301.243L365.087 255.78ZM411.187 255.78L456.598 255.78L456.598 301.243L411.187 301.243L411.187 255.78ZM457.057 255.78L502.469 255.78L502.469 301.243L457.057 301.243L457.057 255.78ZM503.157 255.78L548.569 255.78L548.569 301.243L503.157 301.243L503.157 255.78ZM549.027 255.78L594.439 255.78L594.439 301.243L549.027 301.243L549.027 255.78ZM594.439 347.395L594.439 301.932L549.027 301.932L549.027 347.395L594.439 347.395ZM548.339 347.395L548.339 301.932L502.927 301.932L502.927 347.395L548.339 347.395ZM502.469 347.395L502.469 301.932L457.057 301.932L457.057 347.395L502.469 347.395ZM456.369 347.395L456.369 301.932L410.957 301.932L410.957 347.395L456.369 347.395ZM410.499 347.395L410.499 301.932L365.087 301.932L365.087 347.395L410.499 347.395ZM364.628 347.395L364.628 301.932L319.217 301.932L319.217 347.395L364.628 347.395ZM318.529 347.395L318.529 301.932L273.117 301.932L273.117 347.395L318.529 347.395ZM272.658 347.395L272.658 301.932L227.247 301.932L227.247 347.395L272.658 347.395ZM227.247 348.084L272.658 348.084L272.658 393.547L227.247 393.547L227.247 348.084ZM273.346 348.084L318.529 348.084L318.529 393.547L273.117 393.547L273.117 348.084L273.346 348.084ZM319.217 348.084L364.628 348.084L364.628 393.547L319.217 393.547L319.217 348.084ZM365.087 348.084L410.499 348.084L410.499 393.547L365.087 393.547L365.087 348.084ZM411.187 348.084L456.598 348.084L456.598 393.547L411.187 393.547L411.187 348.084ZM457.057 348.084L502.469 348.084L502.469 393.547L457.057 393.547L457.057 348.084ZM503.157 348.084L548.569 348.084L548.569 393.547L503.157 393.547L503.157 348.084ZM549.027 348.084L594.439 348.084L594.439 393.547L549.027 393.547L549.027 348.084ZM594.439 438.78L594.439 394.006L549.027 394.006L549.027 438.78L594.439 438.78ZM548.339 438.78L548.339 394.006L502.927 394.006L502.927 438.78L548.339 438.78ZM502.469 438.78L502.469 394.006L457.057 394.006L457.057 438.78L502.469 438.78ZM456.369 438.78L456.369 394.006L410.957 394.006L410.957 438.78L456.369 438.78ZM410.499 438.78L410.499 394.006L365.087 394.006L365.087 438.78L410.499 438.78ZM364.628 438.78L364.628 394.006L319.217 394.006L319.217 438.78L364.628 438.78ZM318.529 438.78L318.529 394.006L273.117 394.006L273.117 438.78L318.529 438.78ZM272.658 438.78L272.658 394.006L227.247 394.006L227.247 438.78L272.658 438.78ZM227.247 439.469L272.658 439.469L272.658 484.932L227.247 484.932L227.247 439.469ZM273.346 439.469L318.529 439.469L318.529 484.932L273.117 484.932L273.117 439.469L273.346 439.469ZM319.217 439.469L364.628 439.469L364.628 484.932L319.217 484.932L319.217 439.469ZM365.087 439.469L410.499 439.469L410.499 484.932L365.087 484.932L365.087 439.469ZM411.187 439.469L456.598 439.469L456.598 484.932L411.187 484.932L411.187 439.469ZM457.057 439.469L502.469 439.469L502.469 484.932L457.057 484.932L457.057 439.469ZM503.157 439.469L548.568 439.469L548.568 484.932L503.157 484.932L503.157 439.469ZM549.027 439.469L594.439 439.469L594.439 484.932L549.027 484.932L549.027 439.469ZM594.439 531.084L594.439 485.621L549.027 485.621L549.027 531.084L594.439 531.084ZM548.339 531.084L548.339 485.621L502.927 485.621L502.927 531.084L548.339 531.084ZM502.469 531.084L502.469 485.621L457.057 485.621L457.057 531.084L502.469 531.084ZM456.369 531.084L456.369 485.621L410.957 485.621L410.957 531.084L456.369 531.084ZM410.499 531.084L410.499 485.621L365.087 485.621L365.087 531.084L410.499 531.084ZM364.628 531.084L364.628 485.621L319.217 485.621L319.217 531.084L364.628 531.084ZM318.529 531.084L318.529 485.621L273.117 485.621L273.117 531.084L318.529 531.084ZM272.658 531.084L272.658 485.621L227.247 485.621L227.246 531.084L272.658 531.084ZM227.246 531.773L272.658 531.773L272.658 577.007L227.246 577.007L227.246 531.773ZM273.346 531.773L318.529 531.773L318.529 577.007L273.117 577.007L273.117 531.773L273.346 531.773ZM319.217 531.773L364.628 531.773L364.628 577.007L319.217 577.007L319.217 531.773ZM365.087 531.773L410.499 531.773L410.499 577.007L365.087 577.007L365.087 531.773ZM411.187 531.773L456.598 531.773L456.598 577.007L411.187 577.007L411.187 531.773ZM457.057 531.773L502.469 531.773L502.469 577.007L457.057 577.007L457.057 531.773ZM503.157 531.773L548.568 531.773L548.568 577.007L503.157 577.007L503.157 531.773ZM549.027 531.773L594.439 531.773L594.439 577.007L549.027 577.007L549.027 531.773Z" fill="url(#paint2_linear_292_1928)"/>
<path fill-rule="evenodd" clip-rule="evenodd" d="M226.558 623.848L227.246 623.848L227.246 577.696L272.658 577.696L272.658 623.848L273.346 623.848L273.346 577.696L318.529 577.696L318.529 623.848L319.217 623.848L319.217 577.696L364.628 577.696L364.628 623.848L365.316 623.848L365.316 577.696L410.728 577.696L410.728 623.848L411.416 623.848L411.416 577.696L456.828 577.696L456.828 623.848L457.516 623.848L457.516 577.696L502.927 577.696L502.927 623.848L503.616 623.848L503.616 577.696L549.027 577.696L549.027 623.848L549.715 623.848L549.715 577.696L595.127 577.696L595.127 600.772L595.127 623.848L595.815 623.848L595.815 600.772L595.815 577.696L640.309 577.696L640.309 577.007L594.898 577.007L594.898 531.544L640.768 531.544L640.768 530.855L594.898 530.855L594.898 485.392L640.768 485.392L640.768 484.703L594.898 484.703L594.898 439.24L640.768 439.24L640.768 438.551L594.898 438.551L594.898 393.776L640.768 393.776L640.768 393.088L594.898 393.088L594.898 347.624L640.768 347.624L640.768 346.936L594.898 346.936L594.898 301.472L640.768 301.472L640.768 300.784L594.898 300.784L594.898 255.32L640.768 255.32L640.768 254.632L594.898 254.631L594.898 200L594.21 200L594.21 254.861L548.798 254.861L548.798 200L548.11 200L548.11 254.861L502.698 254.861L502.698 200L502.01 200L502.01 254.861L456.598 254.861L456.598 200L455.91 200L455.91 254.861L410.499 254.861L410.499 200L409.811 200L409.811 254.861L364.399 254.861L364.399 200L363.711 200L363.711 254.861L318.299 254.861L318.299 200L317.611 200L317.611 254.861L272.199 254.861L272.2 200L271.511 200L271.511 254.861L226.1 254.861L226.1 200L225.412 200L225.412 254.861L180 254.861L180 255.55L225.412 255.55L225.412 301.013L180 301.013L180 301.702L225.412 301.702L225.412 347.165L180 347.165L180 347.854L225.412 347.854L225.412 393.547L180 393.547L180 394.236L225.412 394.236L225.412 439.01L180 439.01L180 439.699L225.412 439.699L225.412 484.932L180 484.932L180 485.621L225.412 485.621L225.412 531.084L180 531.084L180 531.773L225.412 531.773L225.412 577.007L180 577.007L180 577.696L225.412 577.696L225.412 623.848L226.558 623.848ZM227.247 255.78L272.658 255.78L272.658 301.243L227.247 301.243L227.247 255.78ZM273.346 255.78L318.529 255.78L318.529 301.243L273.117 301.243L273.117 255.78L273.346 255.78ZM319.217 255.78L364.628 255.78L364.628 301.243L319.217 301.243L319.217 255.78ZM365.087 255.78L410.499 255.78L410.499 301.243L365.087 301.243L365.087 255.78ZM411.187 255.78L456.598 255.78L456.598 301.243L411.187 301.243L411.187 255.78ZM457.057 255.78L502.469 255.78L502.469 301.243L457.057 301.243L457.057 255.78ZM503.157 255.78L548.569 255.78L548.569 301.243L503.157 301.243L503.157 255.78ZM549.027 255.78L594.439 255.78L594.439 301.243L549.027 301.243L549.027 255.78ZM594.439 347.395L594.439 301.932L549.027 301.932L549.027 347.395L594.439 347.395ZM548.339 347.395L548.339 301.932L502.927 301.932L502.927 347.395L548.339 347.395ZM502.469 347.395L502.469 301.932L457.057 301.932L457.057 347.395L502.469 347.395ZM456.369 347.395L456.369 301.932L410.957 301.932L410.957 347.395L456.369 347.395ZM410.499 347.395L410.499 301.932L365.087 301.932L365.087 347.395L410.499 347.395ZM364.628 347.395L364.628 301.932L319.217 301.932L319.217 347.395L364.628 347.395ZM318.529 347.395L318.529 301.932L273.117 301.932L273.117 347.395L318.529 347.395ZM272.658 347.395L272.658 301.932L227.247 301.932L227.247 347.395L272.658 347.395ZM227.247 348.084L272.658 348.084L272.658 393.547L227.247 393.547L227.247 348.084ZM273.346 348.084L318.529 348.084L318.529 393.547L273.117 393.547L273.117 348.084L273.346 348.084ZM319.217 348.084L364.628 348.084L364.628 393.547L319.217 393.547L319.217 348.084ZM365.087 348.084L410.499 348.084L410.499 393.547L365.087 393.547L365.087 348.084ZM411.187 348.084L456.598 348.084L456.598 393.547L411.187 393.547L411.187 348.084ZM457.057 348.084L502.469 348.084L502.469 393.547L457.057 393.547L457.057 348.084ZM503.157 348.084L548.569 348.084L548.569 393.547L503.157 393.547L503.157 348.084ZM549.027 348.084L594.439 348.084L594.439 393.547L549.027 393.547L549.027 348.084ZM594.439 438.78L594.439 394.006L549.027 394.006L549.027 438.78L594.439 438.78ZM548.339 438.78L548.339 394.006L502.927 394.006L502.927 438.78L548.339 438.78ZM502.469 438.78L502.469 394.006L457.057 394.006L457.057 438.78L502.469 438.78ZM456.369 438.78L456.369 394.006L410.957 394.006L410.957 438.78L456.369 438.78ZM410.499 438.78L410.499 394.006L365.087 394.006L365.087 438.78L410.499 438.78ZM364.628 438.78L364.628 394.006L319.217 394.006L319.217 438.78L364.628 438.78ZM318.529 438.78L318.529 394.006L273.117 394.006L273.117 438.78L318.529 438.78ZM272.658 438.78L272.658 394.006L227.247 394.006L227.247 438.78L272.658 438.78ZM227.247 439.469L272.658 439.469L272.658 484.932L227.247 484.932L227.247 439.469ZM273.346 439.469L318.529 439.469L318.529 484.932L273.117 484.932L273.117 439.469L273.346 439.469ZM319.217 439.469L364.628 439.469L364.628 484.932L319.217 484.932L319.217 439.469ZM365.087 439.469L410.499 439.469L410.499 484.932L365.087 484.932L365.087 439.469ZM411.187 439.469L456.598 439.469L456.598 484.932L411.187 484.932L411.187 439.469ZM457.057 439.469L502.469 439.469L502.469 484.932L457.057 484.932L457.057 439.469ZM503.157 439.469L548.568 439.469L548.568 484.932L503.157 484.932L503.157 439.469ZM549.027 439.469L594.439 439.469L594.439 484.932L549.027 484.932L549.027 439.469ZM594.439 531.084L594.439 485.621L549.027 485.621L549.027 531.084L594.439 531.084ZM548.339 531.084L548.339 485.621L502.927 485.621L502.927 531.084L548.339 531.084ZM502.469 531.084L502.469 485.621L457.057 485.621L457.057 531.084L502.469 531.084ZM456.369 531.084L456.369 485.621L410.957 485.621L410.957 531.084L456.369 531.084ZM410.499 531.084L410.499 485.621L365.087 485.621L365.087 531.084L410.499 531.084ZM364.628 531.084L364.628 485.621L319.217 485.621L319.217 531.084L364.628 531.084ZM318.529 531.084L318.529 485.621L273.117 485.621L273.117 531.084L318.529 531.084ZM272.658 531.084L272.658 485.621L227.247 485.621L227.246 531.084L272.658 531.084ZM227.246 531.773L272.658 531.773L272.658 577.007L227.246 577.007L227.246 531.773ZM273.346 531.773L318.529 531.773L318.529 577.007L273.117 577.007L273.117 531.773L273.346 531.773ZM319.217 531.773L364.628 531.773L364.628 577.007L319.217 577.007L319.217 531.773ZM365.087 531.773L410.499 531.773L410.499 577.007L365.087 577.007L365.087 531.773ZM411.187 531.773L456.598 531.773L456.598 577.007L411.187 577.007L411.187 531.773ZM457.057 531.773L502.469 531.773L502.469 577.007L457.057 577.007L457.057 531.773ZM503.157 531.773L548.568 531.773L548.568 577.007L503.157 577.007L503.157 531.773ZM549.027 531.773L594.439 531.773L594.439 577.007L549.027 577.007L549.027 531.773Z" fill="url(#paint3_linear_292_1928)" fill-opacity="0.2"/>
</g>
</g>
<defs>
<linearGradient id="paint0_linear_292_1928" x1="457.744" y1="439.104" x2="366.462" y2="439.746" gradientUnits="userSpaceOnUse">
<stop stop-color="#2C2E71"/>
<stop offset="0.52" stop-color="#745DA8"/>
<stop offset="1" stop-color="#2C2E71"/>
</linearGradient>
<linearGradient id="paint1_linear_292_1928" x1="411.394" y1="486.133" x2="410.751" y2="394.76" gradientUnits="userSpaceOnUse">
<stop stop-color="#2C2E71"/>
<stop offset="0.52" stop-color="#745DA8"/>
<stop offset="1" stop-color="#2C2E71"/>
</linearGradient>
<linearGradient id="paint2_linear_292_1928" x1="610.57" y1="447.283" x2="220.092" y2="421.178" gradientUnits="userSpaceOnUse">
<stop stop-color="#2D348B" stop-opacity="0.2"/>
<stop offset="0.333333" stop-color="#2C368A"/>
<stop offset="0.666667" stop-color="#2D348B"/>
<stop offset="0.974035" stop-color="#2D348B" stop-opacity="0"/>
</linearGradient>
<linearGradient id="paint3_linear_292_1928" x1="212.76" y1="199.951" x2="616.221" y2="245.229" gradientUnits="userSpaceOnUse">
<stop stop-color="#2C368A"/>
<stop offset="0.509478" stop-color="#2C368A" stop-opacity="0.5"/>
<stop offset="1" stop-color="#2C368A"/>
</linearGradient>
<clipPath id="clip0_292_1928">
<rect width="700" height="600" fill="white"/>
</clipPath>
</defs>
</svg>
