<svg width="900" height="450" viewBox="0 0 900 450" fill="none" xmlns="http://www.w3.org/2000/svg">
<g clip-path="url(#clip0_7_43)">
<rect width="900" height="450" fill="white"/>
<rect width="900" height="450" rx="20" fill="#AEDDC2"/>
<g filter="url(#filter0_d_7_43)">
<rect x="300" y="160" width="300" height="130" rx="65" fill="white"/>
</g>
<path d="M366.333 240C366.333 236.318 371.557 233.333 378 233.333C384.443 233.333 389.667 236.318 389.667 240" stroke="#368759" stroke-width="4" stroke-linecap="round" stroke-linejoin="round"/>
<path d="M378 226.667C382.602 226.667 386.333 222.936 386.333 218.333C386.333 213.731 382.602 210 378 210C373.397 210 369.667 213.731 369.667 218.333C369.667 222.936 373.397 226.667 378 226.667Z" stroke="#368759" stroke-width="4" stroke-linecap="round" stroke-linejoin="round"/>
<path d="M416.34 240V210.909H426.994C429.058 210.909 430.767 211.25 432.122 211.932C433.476 212.604 434.489 213.518 435.161 214.673C435.834 215.819 436.17 217.112 436.17 218.551C436.17 219.763 435.947 220.786 435.502 221.619C435.057 222.443 434.461 223.106 433.712 223.608C432.974 224.1 432.159 224.46 431.269 224.688V224.972C432.235 225.019 433.177 225.331 434.096 225.909C435.024 226.477 435.791 227.287 436.397 228.338C437.003 229.389 437.306 230.668 437.306 232.173C437.306 233.66 436.956 234.995 436.255 236.179C435.564 237.353 434.494 238.286 433.045 238.977C431.596 239.659 429.745 240 427.491 240H416.34ZM420.729 236.236H427.065C429.167 236.236 430.673 235.829 431.582 235.014C432.491 234.2 432.945 233.182 432.945 231.96C432.945 231.042 432.713 230.199 432.249 229.432C431.785 228.665 431.122 228.054 430.261 227.599C429.408 227.145 428.395 226.918 427.221 226.918H420.729V236.236ZM420.729 223.494H426.61C427.595 223.494 428.48 223.305 429.266 222.926C430.062 222.547 430.692 222.017 431.156 221.335C431.629 220.644 431.866 219.83 431.866 218.892C431.866 217.689 431.444 216.681 430.602 215.866C429.759 215.052 428.466 214.645 426.724 214.645H420.729V223.494ZM456.235 230.952V218.182H460.496V240H456.32V236.222H456.093C455.591 237.386 454.786 238.357 453.678 239.134C452.579 239.901 451.211 240.284 449.573 240.284C448.171 240.284 446.931 239.976 445.851 239.361C444.781 238.736 443.938 237.812 443.323 236.591C442.717 235.369 442.414 233.859 442.414 232.06V218.182H446.661V231.548C446.661 233.035 447.073 234.219 447.896 235.099C448.72 235.98 449.79 236.42 451.107 236.42C451.902 236.42 452.693 236.222 453.479 235.824C454.274 235.426 454.932 234.825 455.453 234.02C455.984 233.215 456.244 232.192 456.235 230.952ZM476.63 218.182V221.591H464.712V218.182H476.63ZM467.908 212.955H472.155V233.594C472.155 234.418 472.278 235.038 472.524 235.455C472.771 235.862 473.088 236.141 473.476 236.293C473.874 236.435 474.305 236.506 474.769 236.506C475.11 236.506 475.408 236.482 475.664 236.435C475.919 236.387 476.118 236.349 476.26 236.321L477.027 239.83C476.781 239.924 476.431 240.019 475.976 240.114C475.522 240.218 474.953 240.275 474.272 240.284C473.154 240.303 472.113 240.104 471.147 239.688C470.181 239.271 469.399 238.627 468.803 237.756C468.206 236.884 467.908 235.791 467.908 234.474V212.955ZM491.755 218.182V221.591H479.837V218.182H491.755ZM483.033 212.955H487.28V233.594C487.28 234.418 487.403 235.038 487.65 235.455C487.896 235.862 488.213 236.141 488.601 236.293C488.999 236.435 489.43 236.506 489.894 236.506C490.235 236.506 490.533 236.482 490.789 236.435C491.044 236.387 491.243 236.349 491.385 236.321L492.152 239.83C491.906 239.924 491.556 240.019 491.101 240.114C490.647 240.218 490.079 240.275 489.397 240.284C488.279 240.303 487.238 240.104 486.272 239.688C485.306 239.271 484.525 238.627 483.928 237.756C483.331 236.884 483.033 235.791 483.033 234.474V212.955ZM505.651 240.44C503.606 240.44 501.821 239.972 500.296 239.034C498.771 238.097 497.588 236.785 496.745 235.099C495.902 233.414 495.481 231.444 495.481 229.19C495.481 226.927 495.902 224.948 496.745 223.253C497.588 221.558 498.771 220.241 500.296 219.304C501.821 218.366 503.606 217.898 505.651 217.898C507.697 217.898 509.482 218.366 511.006 219.304C512.531 220.241 513.715 221.558 514.557 223.253C515.4 224.948 515.822 226.927 515.822 229.19C515.822 231.444 515.4 233.414 514.557 235.099C513.715 236.785 512.531 238.097 511.006 239.034C509.482 239.972 507.697 240.44 505.651 240.44ZM505.665 236.875C506.991 236.875 508.09 236.525 508.961 235.824C509.832 235.123 510.476 234.19 510.893 233.026C511.319 231.861 511.532 230.578 511.532 229.176C511.532 227.784 511.319 226.506 510.893 225.341C510.476 224.167 509.832 223.224 508.961 222.514C508.09 221.804 506.991 221.449 505.665 221.449C504.33 221.449 503.222 221.804 502.341 222.514C501.47 223.224 500.822 224.167 500.395 225.341C499.979 226.506 499.77 227.784 499.77 229.176C499.77 230.578 499.979 231.861 500.395 233.026C500.822 234.19 501.47 235.123 502.341 235.824C503.222 236.525 504.33 236.875 505.665 236.875ZM525.052 227.045V240H520.805V218.182H524.881V221.733H525.151C525.653 220.578 526.439 219.65 527.509 218.949C528.589 218.248 529.948 217.898 531.586 217.898C533.073 217.898 534.375 218.21 535.492 218.835C536.61 219.451 537.476 220.369 538.092 221.591C538.707 222.812 539.015 224.323 539.015 226.122V240H534.768V226.634C534.768 225.052 534.356 223.816 533.532 222.926C532.708 222.027 531.576 221.577 530.137 221.577C529.152 221.577 528.276 221.79 527.509 222.216C526.752 222.642 526.15 223.267 525.705 224.091C525.27 224.905 525.052 225.89 525.052 227.045Z" fill="#368759"/>
</g>
<defs>
<filter id="filter0_d_7_43" x="245" y="115" width="410" height="240" filterUnits="userSpaceOnUse" color-interpolation-filters="sRGB">
<feFlood flood-opacity="0" result="BackgroundImageFix"/>
<feColorMatrix in="SourceAlpha" type="matrix" values="0 0 0 0 0 0 0 0 0 0 0 0 0 0 0 0 0 0 127 0" result="hardAlpha"/>
<feMorphology radius="15" operator="dilate" in="SourceAlpha" result="effect1_dropShadow_7_43"/>
<feOffset dy="10"/>
<feGaussianBlur stdDeviation="20"/>
<feComposite in2="hardAlpha" operator="out"/>
<feColorMatrix type="matrix" values="0 0 0 0 0.168627 0 0 0 0 0.419608 0 0 0 0 0.27451 0 0 0 0.2 0"/>
<feBlend mode="normal" in2="BackgroundImageFix" result="effect1_dropShadow_7_43"/>
<feBlend mode="normal" in="SourceGraphic" in2="effect1_dropShadow_7_43" result="shape"/>
</filter>
<clipPath id="clip0_7_43">
<rect width="900" height="450" fill="white"/>
</clipPath>
</defs>
</svg>
