<svg width="250" height="50" viewBox="0 0 250 50" fill="none" xmlns="http://www.w3.org/2000/svg">
<path fill-rule="evenodd" clip-rule="evenodd" d="M109.727 19.2537C109.727 20.1179 109.82 20.8187 109.983 21.3326C110.169 21.8465 110.402 22.4071 110.727 23.0144C110.844 23.2014 110.891 23.3882 110.891 23.5517C110.891 23.7854 110.751 24.0189 110.448 24.2525L108.982 25.2336C108.772 25.3737 108.563 25.4438 108.376 25.4438C108.144 25.4438 107.911 25.327 107.678 25.1168C107.352 24.7664 107.073 24.3927 106.84 24.0189C106.607 23.6218 106.374 23.1779 106.118 22.6407C104.302 24.7897 102.021 25.8643 99.2734 25.8643C97.3178 25.8643 95.7579 25.3037 94.6171 24.1824C93.4764 23.0612 92.8943 21.5662 92.8943 19.6975C92.8943 17.7119 93.5928 16.1001 95.0129 14.8855C96.4331 13.6707 98.3189 13.0634 100.717 13.0634C101.508 13.0634 102.323 13.1335 103.184 13.2503C104.046 13.3671 104.931 13.554 105.862 13.7642V12.059C105.862 10.2836 105.49 9.04561 104.768 8.32146C104.022 7.59733 102.765 7.24695 100.973 7.24695C100.158 7.24695 99.32 7.34038 98.4585 7.55061C97.5971 7.76085 96.759 8.01779 95.9442 8.34483C95.5717 8.50835 95.2923 8.60178 95.1293 8.64849C94.9663 8.69522 94.85 8.71858 94.7568 8.71858C94.4309 8.71858 94.2679 8.48498 94.2679 7.99444V6.84983C94.2679 6.47609 94.3145 6.19577 94.4309 6.03226C94.5473 5.86874 94.7568 5.70523 95.0827 5.54172C95.8976 5.12124 96.8754 4.77086 98.0162 4.49054C99.157 4.18687 100.368 4.04672 101.648 4.04672C104.418 4.04672 106.444 4.67742 107.747 5.93882C109.028 7.20022 109.68 9.11568 109.68 11.6852V19.2537H109.727ZM100.274 22.8042C101.043 22.8042 101.834 22.6641 102.673 22.3838C103.511 22.1035 104.256 21.5895 104.884 20.8888C105.256 20.445 105.536 19.9544 105.675 19.3937C105.815 18.8332 105.909 18.1558 105.909 17.3615V16.3804C105.233 16.2169 104.511 16.0768 103.767 15.9833C103.022 15.8899 102.3 15.8432 101.578 15.8432C100.018 15.8432 98.8776 16.1469 98.1093 16.7775C97.341 17.4083 96.9685 18.2959 96.9685 19.4638C96.9685 20.5617 97.2479 21.3793 97.8299 21.94C98.3887 22.524 99.2035 22.8042 100.274 22.8042ZM118.97 25.327C118.551 25.327 118.271 25.2569 118.085 25.0934C117.898 24.9532 117.736 24.6263 117.596 24.1824L112.125 6.12569C111.985 5.65851 111.915 5.35484 111.915 5.19133C111.915 4.81757 112.101 4.60734 112.474 4.60734H114.756C115.198 4.60734 115.501 4.67742 115.663 4.84093C115.85 4.98109 115.99 5.30812 116.129 5.75195L120.04 21.2158L123.672 5.75195C123.789 5.28476 123.929 4.98109 124.114 4.84093C124.301 4.70077 124.627 4.60734 125.046 4.60734H126.909C127.35 4.60734 127.653 4.67742 127.839 4.84093C128.026 4.98109 128.188 5.30812 128.282 5.75195L131.96 21.4027L135.988 5.75195C136.127 5.28476 136.291 4.98109 136.454 4.84093C136.64 4.70077 136.942 4.60734 137.361 4.60734H139.526C139.899 4.60734 140.109 4.79422 140.109 5.19133C140.109 5.29109 140.092 5.39086 140.072 5.50519L140.062 5.56507C140.039 5.70523 139.992 5.8921 139.899 6.14906L134.289 24.2058C134.149 24.673 133.986 24.9767 133.799 25.1168C133.613 25.2569 133.31 25.3504 132.915 25.3504H130.913C130.47 25.3504 130.168 25.2803 129.981 25.1168C129.795 24.9532 129.632 24.6496 129.539 24.1824L125.931 9.11568L122.345 24.1591C122.229 24.6263 122.089 24.9299 121.903 25.0934C121.717 25.2569 121.391 25.327 120.972 25.327H118.97ZM148.886 25.9577C147.675 25.9577 146.465 25.8176 145.3 25.5372C144.136 25.2569 143.228 24.9532 142.623 24.6029C142.251 24.3927 141.994 24.1591 141.902 23.9488C141.808 23.7386 141.762 23.505 141.762 23.2948V22.1035C141.762 21.6129 141.947 21.3793 142.297 21.3793C142.437 21.3793 142.577 21.4027 142.717 21.4494C142.806 21.4796 142.926 21.5292 143.062 21.5858C143.137 21.6168 143.216 21.6499 143.298 21.683C144.089 22.0334 144.951 22.3137 145.859 22.5005C146.791 22.6874 147.699 22.7809 148.629 22.7809C150.096 22.7809 151.237 22.524 152.028 22.01C152.82 21.4961 153.239 20.7486 153.239 19.7909C153.239 19.1368 153.03 18.5996 152.611 18.1558C152.192 17.7119 151.4 17.3148 150.26 16.941L146.884 15.8899C145.184 15.3526 143.927 14.5584 143.159 13.5072C142.39 12.4794 141.994 11.3348 141.994 10.1201C141.994 9.13905 142.204 8.27475 142.623 7.52725C143.042 6.77976 143.601 6.12569 144.299 5.61179C144.998 5.07453 145.789 4.67742 146.721 4.39711C147.652 4.1168 148.629 4 149.654 4C150.166 4 150.702 4.02336 151.214 4.09344C151.749 4.16351 152.238 4.25696 152.727 4.35039C153.193 4.46719 153.635 4.58399 154.054 4.72414C154.473 4.86429 154.799 5.00445 155.032 5.1446C155.358 5.33148 155.591 5.51836 155.73 5.72859C155.87 5.91546 155.94 6.17242 155.94 6.49945V7.59733C155.94 8.08788 155.753 8.34483 155.404 8.34483C155.219 8.34483 154.915 8.25139 154.519 8.06452C153.193 7.45718 151.703 7.1535 150.05 7.1535C148.723 7.1535 147.675 7.36373 146.953 7.80756C146.231 8.25139 145.859 8.92881 145.859 9.88654C145.859 10.5406 146.092 11.1012 146.557 11.5451C147.023 11.9889 147.884 12.4327 149.118 12.8298L152.424 13.881C154.1 14.4182 155.311 15.1657 156.033 16.1234C156.755 17.0812 157.104 18.1791 157.104 19.3937C157.104 20.3982 156.895 21.3092 156.499 22.1035C156.08 22.8977 155.521 23.5984 154.799 24.1591C154.077 24.7431 153.216 25.1635 152.215 25.4672C151.167 25.7942 150.073 25.9577 148.886 25.9577ZM153.286 37.3104C145.627 42.9866 134.498 46 124.929 46C111.519 46 99.4364 41.0245 90.3101 32.7553C89.5884 32.1013 90.2402 31.2136 91.1017 31.7275C100.973 37.4739 113.149 40.9544 125.744 40.9544C134.242 40.9544 143.578 39.1791 152.168 35.535C153.449 34.951 154.543 36.3759 153.286 37.3104ZM147.512 33.3627C150.003 33.059 155.498 32.4049 156.476 33.6663C157.453 34.9043 155.381 40.1135 154.45 42.426C154.17 43.1268 154.776 43.4071 155.404 42.8699C159.502 39.4127 160.573 32.1947 159.735 31.1435C158.897 30.1157 151.703 29.228 147.326 32.3115C146.651 32.802 146.767 33.4561 147.512 33.3627Z" fill="#9CA3AF"/>
</svg>
