<svg width="250" height="50" viewBox="0 0 250 50" fill="none" xmlns="http://www.w3.org/2000/svg">
<g clip-path="url(#clip0_1_2)">
<path d="M170.677 11.6028C171.293 12.2501 172.019 12.5749 172.857 12.5749C173.695 12.5749 174.461 12.2501 175.076 11.6028C175.692 10.9555 175.998 10.191 175.998 9.30733C175.998 8.4236 175.69 7.65256 175.076 6.99198C174.459 6.32919 173.72 6 172.857 6C171.994 6 171.293 6.3314 170.677 6.99198C170.061 7.65256 169.755 8.42581 169.755 9.30733C169.755 10.1888 170.063 10.9555 170.677 11.6028Z" fill="#9CA3AF"/>
<path d="M104.411 20.06C104.411 20.1285 104.358 20.1815 104.295 20.1815H99.9721V28.7823C99.9721 29.4981 100.143 30.024 100.483 30.3531C100.823 30.6845 101.321 30.8701 101.975 30.9121C102.575 30.9496 103.305 30.9474 104.166 30.9033H104.189L104.229 30.901H104.288C104.356 30.8944 104.411 30.9496 104.411 31.0203V35.6201C104.411 35.682 104.366 35.735 104.307 35.7416C104.278 35.746 104.25 35.7483 104.227 35.7505C100.842 36.1305 98.4482 35.7792 97.0446 34.6966C95.6178 33.5942 94.9044 31.6235 94.9044 28.7845V20.1837H91.6033C91.5379 20.1837 91.4872 20.1285 91.4872 20.0622V15.1796C91.4872 15.1112 91.54 15.0581 91.6033 15.0581H94.9044V11.6426C94.9044 11.5453 94.9593 11.457 95.0437 11.4172L99.8074 9.21012C99.8855 9.17477 99.9721 9.23442 99.9721 9.32279V15.0581H104.295C104.36 15.0581 104.411 15.1134 104.411 15.1796V20.0622V20.06Z" fill="#9CA3AF"/>
<path d="M113.598 18.6107C114.069 17.2873 114.848 16.2953 115.935 15.6326C116.929 15.0272 118.029 14.698 119.232 14.6472C119.289 14.645 119.38 14.6428 119.451 14.6428C119.517 14.6428 119.57 14.6958 119.57 14.7643V20.3759C119.57 20.493 119.472 20.5836 119.361 20.5726C117.9 20.4334 116.587 20.7714 115.424 21.5888C114.206 22.4438 113.598 23.8622 113.598 25.8484V35.6091C113.598 35.6776 113.546 35.7328 113.482 35.7328H108.649C108.584 35.7328 108.533 35.6776 108.533 35.6091V15.1774C108.533 15.109 108.586 15.0559 108.649 15.0559H113.482C113.548 15.0559 113.598 15.1112 113.598 15.1774V18.6107V18.6107Z" fill="#9CA3AF"/>
<path fill-rule="evenodd" clip-rule="evenodd" d="M137.559 15.0559C137.495 15.0559 137.443 15.1112 137.443 15.1774V17.495C135.923 15.4823 133.789 14.4771 131.039 14.4771C128.289 14.4771 126.174 15.5309 124.302 17.6408C122.429 19.7507 121.492 22.3334 121.492 25.3933C121.492 28.4531 122.429 31.038 124.302 33.1457C126.174 35.2556 128.419 36.3094 131.039 36.3094C133.789 36.3094 135.923 35.3042 137.443 33.2915V35.6091C137.443 35.6776 137.495 35.7306 137.559 35.7306H142.392C142.457 35.7306 142.508 35.6754 142.508 35.6091V15.1774C142.508 15.109 142.455 15.0559 142.392 15.0559H137.559ZM128.092 29.6108C129.114 30.6867 130.41 31.2236 131.98 31.2236C133.55 31.2236 134.855 30.6801 135.889 29.5909C136.923 28.5017 137.44 27.1033 137.44 25.3933C137.44 23.6833 136.923 22.2848 135.889 21.1956C134.855 20.1064 133.553 19.5629 131.98 19.5629C130.408 19.5629 129.112 20.1064 128.092 21.1956C127.071 22.2848 126.56 23.6833 126.56 25.3933C126.56 27.1033 127.071 28.5084 128.092 29.6108Z" fill="#9CA3AF"/>
<path fill-rule="evenodd" clip-rule="evenodd" d="M164.518 17.6386C162.646 15.5309 160.387 14.4749 157.743 14.4749C155.098 14.4749 152.871 15.4801 151.379 17.4928V15.1752C151.379 15.1067 151.326 15.0537 151.263 15.0537H146.43C146.364 15.0537 146.314 15.109 146.314 15.1752V43.8785C146.314 43.947 146.366 44 146.43 44H151.263C151.329 44 151.379 43.9448 151.379 43.8785V33.2915C152.871 35.3042 154.993 36.3094 157.743 36.3094C160.493 36.3094 162.646 35.2556 164.518 33.1457C166.39 31.038 167.327 28.4531 167.327 25.3933C167.327 22.3334 166.392 19.7485 164.518 17.6408V17.6386ZM152.909 29.6086C153.931 30.6845 155.227 31.2214 156.799 31.2214C158.372 31.2214 159.674 30.6779 160.708 29.5887C161.743 28.4995 162.26 27.101 162.26 25.391C162.26 23.681 161.743 22.2826 160.708 21.1934C159.674 20.1042 158.372 19.5607 156.799 19.5607C155.227 19.5607 153.931 20.1042 152.909 21.1934C151.888 22.2826 151.377 23.681 151.377 25.391C151.377 27.101 151.888 28.5062 152.909 29.6086Z" fill="#9CA3AF"/>
<path d="M170.462 35.7306C170.396 35.7306 170.346 35.6753 170.346 35.6091V15.1797C170.346 15.1112 170.398 15.0559 170.462 15.0559H175.295C175.36 15.0559 175.411 15.1112 175.411 15.1797V35.6091C175.411 35.6776 175.358 35.7306 175.295 35.7306H170.462Z" fill="#9CA3AF"/>
<path d="M80.0116 22.2715C79.3172 21.9269 78.9711 21.4784 78.9711 20.9283C78.9711 20.3781 79.1863 19.9915 79.619 19.6888C80.0517 19.3862 80.5942 19.2337 81.2485 19.2337C82.5043 19.2337 83.452 19.7485 84.0936 20.778C84.1379 20.8509 84.2245 20.8797 84.3005 20.8443L88.5767 18.8537C88.64 18.825 88.6653 18.7433 88.6294 18.6792C88.583 18.5952 88.5197 18.487 88.4796 18.4185C87.7472 17.2056 86.7995 16.302 85.6091 15.6149C84.3005 14.8571 82.8462 14.4771 81.2485 14.4771C79.1272 14.4771 77.3522 15.0626 75.9254 16.2335C74.4986 17.4044 73.7852 19.0106 73.7852 21.0498C73.7852 22.3997 74.1313 23.5242 74.8257 24.419C75.5201 25.3159 76.3644 25.9699 77.3585 26.383C78.3526 26.7962 79.3489 27.1408 80.343 27.417C81.3371 27.6931 82.1835 28.0024 82.8758 28.3471C83.5702 28.6917 83.9163 29.1402 83.9163 29.6904C83.9163 30.8767 83.013 31.4688 81.2062 31.4688C79.3995 31.4688 78.2935 30.7994 77.6308 29.4606C77.5738 29.3457 77.4429 29.2927 77.3311 29.3457L73.0697 31.3363C73.0106 31.365 72.9831 31.4379 73.0127 31.4998C73.0296 31.5373 73.0486 31.5771 73.0612 31.6036C74.5513 34.7386 77.2678 36.305 81.2105 36.305C83.4625 36.305 85.341 35.7328 86.848 34.5884C88.3529 33.444 89.1064 31.8113 89.1064 29.6881C89.1064 28.283 88.7603 27.1099 88.0659 26.1731C87.3715 25.2364 86.5272 24.567 85.5331 24.1671C84.539 23.7672 83.5427 23.4358 82.5486 23.1751C81.5545 22.9122 80.7081 22.6095 80.0158 22.2649L80.0116 22.2715Z" fill="#9CA3AF"/>
</g>
<defs>
<clipPath id="clip0_1_2">
<rect width="103" height="38" fill="white" transform="translate(73 6)"/>
</clipPath>
</defs>
</svg>
