<svg width="170" height="59" viewBox="0 0 170 59" fill="none" xmlns="http://www.w3.org/2000/svg">
<path d="M73.8615 47.3865C80.7569 47.3865 86.7719 42.5723 86.7719 34.7307V12.5956H79.9744V34.2841C79.9744 38.9493 77.0402 40.8353 73.8615 40.8353C70.7317 40.8353 67.7975 38.9493 67.7975 34.2841V12.5956H61V34.7307C61 42.5723 67.0151 47.3865 73.8615 47.3865Z" fill="#050C4D"/>
<path d="M104.299 23.8617C102.099 23.8617 98.5287 25.2017 97.4528 28.2291V24.4572H91.0465V47.6346H97.4528V35.4752C97.4528 31.2566 100.289 30.0158 102.588 30.0158C104.788 30.0158 106.94 31.6536 106.94 35.2767V47.6346H113.346V34.9292C113.395 27.981 110.265 23.8617 104.299 23.8617Z" fill="#050C4D"/>
<path d="M121.541 20.3875C123.79 20.3875 125.6 18.6505 125.6 16.4667C125.6 14.283 123.79 12.5956 121.541 12.5956C119.34 12.5956 117.482 14.283 117.482 16.4667C117.482 18.6505 119.34 20.3875 121.541 20.3875ZM124.768 47.6346V24.4572H118.362V47.6346H124.768Z" fill="#050C4D"/>
<path d="M145.222 18.0549V12H142.483C135.979 12 132.458 15.9704 132.458 22.9187V24.6061H128.155V29.6684H132.458V47.7835H138.865V29.6684H143.853V24.6061H138.865V22.8691C138.914 20.0898 140.087 18.0549 143.755 18.0549H145.222Z" fill="#050C4D"/>
<path d="M157.872 37.8574L152.493 24.4572H145.451L154.498 45.4509L149.069 59H155.916L170 24.4572H163.105L157.872 37.8574Z" fill="#050C4D"/>
<path d="M4.05491e-06 29.4L12.2082 36.76L24.4164 44.08L36.6246 36.76L24.4164 29.4L12.2082 22.04L4.05491e-06 29.4Z" fill="#6458A6"/>
<path d="M12.2082 22.04L24.4164 29.4L36.6246 36.76L48.8328 29.4L36.6246 22.04L24.4164 14.72L12.2082 22.04Z" fill="#5B4895"/>
<path d="M24.4164 14.72L36.6246 22.04L48.8328 14.72H24.4164Z" fill="#FECA71"/>
<path d="M48.8328 29.4L36.6246 22.04L48.8328 14.72V29.4Z" fill="#A26EAF"/>
<path d="M-1.54735e-06 44.08L24.4164 58.8L48.8328 44.08V29.4L36.6246 36.76L24.4164 44.08L12.2082 36.76L-1.54735e-06 44.08Z" fill="#DB64A6"/>
<path d="M3.99114e-06 29.4L12.2082 36.76L3.99114e-06 44.08V29.4Z" fill="#A26EAF"/>
<path d="M-1.54735e-06 14.72V29.4L12.2082 22.04L24.4164 14.72H48.8328L24.4164 0L-1.54735e-06 14.72Z" fill="#FECA71"/>
</svg>
