<svg width="250" height="50" viewBox="0 0 250 50" fill="none" xmlns="http://www.w3.org/2000/svg">
<g clip-path="url(#clip0_4_2)">
<path d="M121.98 13.18L128.18 11.88V7L121.98 8.27V13.18Z" fill="#9CA3AF"/>
<path d="M141.09 14.59C138.67 14.59 137.11 15.7 136.24 16.46L135.92 14.97H130.48V42.99L136.66 41.72L136.68 34.92C137.57 35.54 138.88 36.43 141.06 36.43C145.48 36.43 149.51 32.97 149.51 25.35C149.49 18.38 145.41 14.58 141.08 14.58L141.09 14.59ZM139.61 31.15C138.15 31.15 137.28 30.65 136.69 30.02L136.67 21.1C137.31 20.4 138.2 19.92 139.61 19.92C141.86 19.92 143.42 22.37 143.42 25.52C143.42 28.67 141.89 31.14 139.61 31.14V31.15Z" fill="#9CA3AF"/>
<path d="M169 25.6C169 19.45 165.93 14.59 160.08 14.59C154.23 14.59 150.63 19.44 150.63 25.55C150.63 32.78 154.83 36.44 160.87 36.44C163.81 36.44 166.04 35.79 167.72 34.88V30.07C166.04 30.89 164.11 31.39 161.66 31.39C159.21 31.39 157.14 30.57 156.86 27.74H168.95C168.95 27.43 169 26.18 169 25.6V25.6ZM156.79 23.32C156.79 20.6 158.5 19.47 160.05 19.47C161.6 19.47 163.16 20.6 163.16 23.32H156.78H156.79Z" fill="#9CA3AF"/>
<path d="M86.25 21.11C86.25 20.17 87.04 19.81 88.35 19.81C90.23 19.81 92.6 20.36 94.48 21.35V15.7C92.43 14.91 90.4 14.59 88.35 14.59C83.34 14.59 80 17.14 80 21.4C80 28.03 89.39 26.98 89.39 29.84C89.39 30.95 88.4 31.31 87.02 31.31C84.97 31.31 82.35 30.49 80.27 29.39V35.11C82.57 36.07 84.89 36.48 87.02 36.48C92.16 36.48 95.7 34 95.7 29.7C95.68 22.54 86.26 23.81 86.26 21.12L86.25 21.11Z" fill="#9CA3AF"/>
<path d="M102.97 9.79001L96.94 11.04L96.92 30.29C96.92 33.85 99.66 36.47 103.32 36.47C105.35 36.47 106.83 36.11 107.65 35.68V30.8C106.86 31.11 102.95 32.22 102.95 28.66V20.12H107.65V15H102.95L102.97 9.79001V9.79001Z" fill="#9CA3AF"/>
<path d="M115.33 16.78L114.93 15H109.59V36.03H115.77V21.78C117.23 19.93 119.7 20.27 120.47 20.53V15C119.68 14.71 116.79 14.18 115.33 16.78Z" fill="#9CA3AF"/>
<path d="M128.18 15H121.98V36.03H128.18V15Z" fill="#9CA3AF"/>
</g>
<defs>
<clipPath id="clip0_4_2">
<rect width="89" height="36" fill="white" transform="translate(80 7)"/>
</clipPath>
</defs>
</svg>
