<svg width="49" height="59" viewBox="0 0 49 59" fill="none" xmlns="http://www.w3.org/2000/svg">
<path d="M4.05491e-06 29.4L12.2082 36.76L24.4164 44.08L36.6246 36.76L24.4164 29.4L12.2082 22.04L4.05491e-06 29.4Z" fill="#6458A6"/>
<path d="M12.2082 22.04L24.4164 29.4L36.6246 36.76L48.8328 29.4L36.6246 22.04L24.4164 14.72L12.2082 22.04Z" fill="#5B4895"/>
<path d="M24.4164 14.72L36.6246 22.04L48.8328 14.72H24.4164Z" fill="#FECA71"/>
<path d="M48.8328 29.4L36.6246 22.04L48.8328 14.72V29.4Z" fill="#A26EAF"/>
<path d="M-1.54735e-06 44.08L24.4164 58.8L48.8328 44.08V29.4L36.6246 36.76L24.4164 44.08L12.2082 36.76L-1.54735e-06 44.08Z" fill="#DB64A6"/>
<path d="M3.99114e-06 29.4L12.2082 36.76L3.99114e-06 44.08V29.4Z" fill="#A26EAF"/>
<path d="M-1.54735e-06 14.72V29.4L12.2082 22.04L24.4164 14.72H48.8328L24.4164 0L-1.54735e-06 14.72Z" fill="#FECA71"/>
</svg>
