<svg width="250" height="50" viewBox="0 0 250 50" fill="none" xmlns="http://www.w3.org/2000/svg">
<g clip-path="url(#clip0_4_7)">
<path d="M112.67 21.5018H112.659C110.924 21.5018 108.988 22.2394 108.003 23.9047V21.9377H103.772V37.8529H108.137V28.6994C108.137 26.8777 109.245 25.4135 111.159 25.4135C113.263 25.4135 114.147 26.8106 114.147 28.5877V37.8529H118.512V27.8277C118.523 24.3294 116.688 21.5129 112.681 21.5129L112.67 21.5018Z" fill="#9CA3AF"/>
<path d="M96.5087 29.2135C96.5087 32.22 94.4941 33.9971 91.7409 33.9971C88.9876 33.9971 87.0066 32.22 87.0066 29.2135V14.8965H82.485V29.1577C82.485 34.7906 86.5478 38.3447 91.7521 38.3447C96.9564 38.3447 101.053 34.7906 101.053 29.1577V14.8965H96.5199V29.2024L96.5087 29.2135Z" fill="#9CA3AF"/>
<path d="M62.1267 6H50.1736V14.8853H62.1267V6Z" fill="#9CA3AF"/>
<path d="M62.1379 28.9788H50.1736V20.0935H40V37.8641H72.3115V20.0935H62.1379V28.9788Z" fill="#9CA3AF"/>
<path d="M128.686 28.1965H128.675L126.28 27.7159C125.362 27.5371 124.802 27.0677 124.802 26.2965C124.802 25.3912 125.63 24.7094 126.772 24.7094C128.384 24.7094 129.022 25.5253 129.178 26.4865H132.939C132.905 24.2959 131.159 21.4459 126.839 21.4459C123.358 21.4459 120.807 23.8041 120.807 26.6541C120.807 28.8894 122.217 30.7335 125.328 31.393L127.567 31.8735C128.809 32.1306 129.301 32.7118 129.301 33.4271C129.301 34.2653 128.507 35.0141 127.085 35.0141C125.351 35.0141 124.399 34.0418 124.175 32.9018H120.292C120.516 35.2824 122.262 38.3112 127.119 38.3112C131.35 38.3112 133.487 35.6624 133.487 33.0694C133.487 30.7559 131.876 28.8447 128.697 28.1965H128.686Z" fill="#9CA3AF"/>
<path d="M203.001 21.5018C201.457 21.5018 199.677 22.0159 198.636 23.2453V14.8965H194.271V37.8306H198.636V28.4871C198.737 26.7324 199.823 25.38 201.658 25.38C203.762 25.38 204.646 26.7771 204.635 28.5541V37.8418H209V27.8053C209 24.3071 207.097 21.5018 203.001 21.5018V21.5018Z" fill="#9CA3AF"/>
<path d="M187.489 28.1965H187.478L185.105 27.7159C184.187 27.5371 183.628 27.0677 183.628 26.2965C183.628 25.3912 184.445 24.7094 185.597 24.7094C187.209 24.7094 187.847 25.5253 188.004 26.4865H191.764C191.731 24.2959 189.985 21.4459 185.665 21.4459C182.184 21.4459 179.632 23.8041 179.632 26.6541C179.632 28.8894 181.042 30.7335 184.165 31.393L186.381 31.8735C187.623 32.1306 188.116 32.7118 188.116 33.4271C188.116 34.2653 187.321 35.0141 185.9 35.0141C184.154 35.0141 183.214 34.0418 182.99 32.9018H179.117C179.33 35.2824 181.076 38.3112 185.933 38.3112C190.164 38.3112 192.301 35.6624 192.301 33.0694C192.301 30.7559 190.69 28.8559 187.511 28.2077L187.489 28.1965Z" fill="#9CA3AF"/>
<path d="M172.872 21.9265V23.8935C172.1 22.6753 170.343 21.5688 167.914 21.5688C163.191 21.5688 160.471 25.1118 160.471 29.8506C160.471 34.5894 163.527 38.2329 168.082 38.2329C170.309 38.2329 171.999 37.1823 172.738 35.9082V37.8418H177.103V21.9265H172.872V21.9265ZM168.776 34.3771C166.549 34.3771 164.769 32.7006 164.769 29.8841C164.769 27.0676 166.549 25.4247 168.776 25.4247C171.003 25.4247 172.805 27.0788 172.805 29.8953C172.805 32.7118 171.003 34.3882 168.765 34.3882L168.776 34.3771Z" fill="#9CA3AF"/>
<path d="M135.401 21.9265V44H139.766V36.2994C140.549 37.3723 142.206 38.2441 144.433 38.2441C148.988 38.2441 152.044 34.6788 152.044 29.8618H152.055C152.055 25.1341 149.335 21.5688 144.601 21.5688C142.172 21.5688 140.382 22.6753 139.643 23.8935V21.9265H135.412H135.401ZM143.739 25.4247C145.966 25.4247 147.746 27.0788 147.746 29.8953H147.779C147.779 32.7341 145.978 34.3882 143.75 34.3882C141.523 34.3882 139.721 32.7118 139.721 29.8953C139.721 27.0788 141.523 25.4247 143.75 25.4247H143.739Z" fill="#9CA3AF"/>
<path d="M158.434 14.8965H154.069V37.8306H158.434V14.8965Z" fill="#9CA3AF"/>
</g>
<defs>
<clipPath id="clip0_4_7">
<rect width="169" height="38" fill="white" transform="translate(40 6)"/>
</clipPath>
</defs>
</svg>
